G04*
G04 #@! TF.GenerationSoftware,Altium Limited,Altium Designer,24.2.2 (26)*
G04*
G04 Layer_Color=16711935*
%FSLAX44Y44*%
%MOMM*%
G71*
G04*
G04 #@! TF.SameCoordinates,200C4C84-4450-49E8-9A81-A87B66CA8C1A*
G04*
G04*
G04 #@! TF.FilePolarity,Negative*
G04*
G01*
G75*
%ADD35R,1.4032X1.4032*%
%ADD38R,1.4032X1.4032*%
%ADD49R,1.5032X0.8032*%
%ADD51C,0.9032*%
%ADD52C,1.8532*%
%ADD53R,1.8532X1.8532*%
%ADD54R,1.6002X1.6002*%
%ADD55C,1.6002*%
%ADD56C,2.6032*%
%ADD57R,2.6032X2.6032*%
%ADD58C,1.8032*%
%ADD59R,1.8032X1.8032*%
%ADD74R,1.8032X0.8032*%
D35*
X293370Y19050D02*
D03*
Y81280D02*
D03*
X38050Y113970D02*
D03*
X17050D02*
D03*
X314370Y81280D02*
D03*
Y19050D02*
D03*
X358090D02*
D03*
X337090D02*
D03*
X358090Y81280D02*
D03*
X337090D02*
D03*
X38050Y87300D02*
D03*
X17050D02*
D03*
D38*
X293370Y121870D02*
D03*
Y100870D02*
D03*
Y38640D02*
D03*
Y59640D02*
D03*
X534670Y126950D02*
D03*
Y105950D02*
D03*
X215900Y10836D02*
D03*
Y31836D02*
D03*
X236220Y31700D02*
D03*
Y10700D02*
D03*
D49*
X336890Y110490D02*
D03*
X315890Y100990D02*
D03*
X315890Y119990D02*
D03*
X336890Y49530D02*
D03*
X315890Y40030D02*
D03*
X315890Y59030D02*
D03*
D51*
X63010Y70360D02*
D03*
X63010Y128160D02*
D03*
X440944Y31750D02*
D03*
D52*
X509910Y48260D02*
D03*
X484510Y22860D02*
D03*
Y48260D02*
D03*
Y73660D02*
D03*
X509910Y22860D02*
D03*
D53*
Y73660D02*
D03*
D54*
X407670Y59690D02*
D03*
X80010Y19050D02*
D03*
X408940Y20320D02*
D03*
D55*
X387350Y59690D02*
D03*
X59690Y19050D02*
D03*
X388620Y20320D02*
D03*
D56*
X509270Y170180D02*
D03*
D57*
Y119380D02*
D03*
D58*
X162560Y17526D02*
D03*
X137160D02*
D03*
X111760D02*
D03*
D59*
X187960D02*
D03*
D74*
X486742Y144882D02*
D03*
Y125882D02*
D03*
X464742Y135382D02*
D03*
M02*
