G04*
G04 #@! TF.GenerationSoftware,Altium Limited,Altium Designer,24.2.2 (26)*
G04*
G04 Layer_Physical_Order=1*
G04 Layer_Color=255*
%FSLAX44Y44*%
%MOMM*%
G71*
G04*
G04 #@! TF.SameCoordinates,200C4C84-4450-49E8-9A81-A87B66CA8C1A*
G04*
G04*
G04 #@! TF.FilePolarity,Positive*
G04*
G01*
G75*
%ADD12C,0.2000*%
%ADD14C,0.2500*%
%ADD19R,1.2000X1.2000*%
%ADD20O,0.3000X1.8000*%
%ADD21O,1.8000X0.3000*%
%ADD22R,1.2000X1.2000*%
%ADD23R,0.6000X0.9000*%
%ADD24R,1.2000X2.0000*%
%ADD25R,1.5000X1.9000*%
%ADD26R,0.8500X0.3000*%
%ADD27R,1.5000X0.8000*%
G04:AMPARAMS|DCode=28|XSize=0.6mm|YSize=1.8mm|CornerRadius=0.15mm|HoleSize=0mm|Usage=FLASHONLY|Rotation=270.000|XOffset=0mm|YOffset=0mm|HoleType=Round|Shape=RoundedRectangle|*
%AMROUNDEDRECTD28*
21,1,0.6000,1.5000,0,0,270.0*
21,1,0.3000,1.8000,0,0,270.0*
1,1,0.3000,-0.7500,-0.1500*
1,1,0.3000,-0.7500,0.1500*
1,1,0.3000,0.7500,0.1500*
1,1,0.3000,0.7500,-0.1500*
%
%ADD28ROUNDEDRECTD28*%
G04:AMPARAMS|DCode=29|XSize=0.3mm|YSize=1.8mm|CornerRadius=0.075mm|HoleSize=0mm|Usage=FLASHONLY|Rotation=270.000|XOffset=0mm|YOffset=0mm|HoleType=Round|Shape=RoundedRectangle|*
%AMROUNDEDRECTD29*
21,1,0.3000,1.6500,0,0,270.0*
21,1,0.1500,1.8000,0,0,270.0*
1,1,0.1500,-0.8250,-0.0750*
1,1,0.1500,-0.8250,0.0750*
1,1,0.1500,0.8250,0.0750*
1,1,0.1500,0.8250,-0.0750*
%
%ADD29ROUNDEDRECTD29*%
G04:AMPARAMS|DCode=30|XSize=2mm|YSize=2mm|CornerRadius=0.3mm|HoleSize=0mm|Usage=FLASHONLY|Rotation=270.000|XOffset=0mm|YOffset=0mm|HoleType=Round|Shape=RoundedRectangle|*
%AMROUNDEDRECTD30*
21,1,2.0000,1.4000,0,0,270.0*
21,1,1.4000,2.0000,0,0,270.0*
1,1,0.6000,-0.7000,-0.7000*
1,1,0.6000,-0.7000,0.7000*
1,1,0.6000,0.7000,0.7000*
1,1,0.6000,0.7000,-0.7000*
%
%ADD30ROUNDEDRECTD30*%
%ADD31O,2.3000X0.7000*%
%ADD32R,2.2000X2.0000*%
%ADD33R,1.3000X0.6000*%
%ADD34R,0.6000X1.3000*%
%ADD60C,0.5000*%
%ADD61C,0.3000*%
%ADD62C,0.7000*%
%ADD63C,0.7000*%
%ADD64C,1.6500*%
%ADD65R,1.6500X1.6500*%
%ADD66R,1.3970X1.3970*%
%ADD67C,1.3970*%
%ADD68C,2.4000*%
%ADD69R,2.4000X2.4000*%
%ADD70C,1.6000*%
%ADD71R,1.6000X1.6000*%
%ADD72C,1.0000*%
G36*
X160528Y196596D02*
X160882Y196596D01*
X161535Y196325D01*
X162035Y195825D01*
X162306Y195172D01*
X162306Y194818D01*
X162306Y181042D01*
X156718D01*
Y182372D01*
X156718Y190754D01*
X156718D01*
X156693Y191002D01*
X156504Y191460D01*
X156153Y191810D01*
X155696Y191999D01*
X155448Y192024D01*
X145542Y192024D01*
X145195Y191990D01*
X144554Y191724D01*
X144064Y191234D01*
X143798Y190593D01*
X143764Y190246D01*
Y180086D01*
X129286D01*
X129286Y180086D01*
X128939Y180052D01*
X128298Y179786D01*
X127808Y179296D01*
X127542Y178655D01*
X127508Y178308D01*
Y176276D01*
X127508Y176276D01*
X127508Y175973D01*
X127276Y175413D01*
X126847Y174984D01*
X126287Y174752D01*
X125984Y174752D01*
X109474D01*
X109078Y174713D01*
X108345Y174410D01*
X107784Y173849D01*
X107481Y173116D01*
X107442Y172720D01*
X107442Y172720D01*
X107442Y172164D01*
X107016Y171137D01*
X106231Y170351D01*
X105204Y169926D01*
X104648Y169926D01*
X53594Y169926D01*
Y188722D01*
X135382D01*
X135729Y188756D01*
X136370Y189021D01*
X136861Y189512D01*
X137126Y190153D01*
X137160Y190500D01*
X137160Y195072D01*
D01*
Y195072D01*
Y195072D01*
X137160Y195375D01*
X137392Y195935D01*
X137821Y196364D01*
X138381Y196596D01*
X138684Y196596D01*
X160528Y196596D01*
X160528Y196596D01*
D02*
G37*
G36*
X133846Y196262D02*
X134610Y195376D01*
X134611Y195374D01*
X134611Y195071D01*
X134611Y191271D01*
X106290D01*
Y192196D01*
X89290D01*
Y191271D01*
X53594D01*
X52619Y191077D01*
X52608Y191070D01*
X51220D01*
Y189602D01*
X51045Y188722D01*
Y169926D01*
X51220Y169046D01*
Y167070D01*
X71220D01*
Y167377D01*
X89290Y167377D01*
Y167196D01*
X106290D01*
Y167617D01*
X107206Y167996D01*
X108033Y168549D01*
X108762Y169278D01*
X108819Y169335D01*
X109594Y170140D01*
X110650Y169930D01*
X110650Y169578D01*
Y162715D01*
X115062D01*
Y168402D01*
X115062Y169160D01*
X115642Y170560D01*
X115797Y170716D01*
X111922D01*
X111312Y171313D01*
X111003Y171985D01*
X111046Y172119D01*
X111114Y172200D01*
X111195Y172203D01*
X118092D01*
X118114Y172212D01*
X118872Y172212D01*
X126332Y172212D01*
X127262Y172397D01*
X127262Y172397D01*
X127823Y172629D01*
X128650Y173181D01*
X128684Y173216D01*
X129150D01*
Y173718D01*
X129631Y174437D01*
X129863Y174997D01*
X129863Y174997D01*
X130057Y175973D01*
X130057Y175973D01*
X130057Y175973D01*
X130057Y176267D01*
X130057Y176275D01*
X130057Y176276D01*
Y176285D01*
X130075Y177537D01*
X142860D01*
Y176950D01*
X146298D01*
X146555Y177207D01*
X146783Y177757D01*
X146812Y178054D01*
X146812Y189992D01*
X152908D01*
X152908Y176950D01*
X154338D01*
Y173114D01*
X153512Y171119D01*
Y168732D01*
X154425Y166527D01*
X155233Y165720D01*
X154707Y164450D01*
X153860D01*
Y150450D01*
X162236D01*
X162329Y150432D01*
X162422Y150450D01*
X164860D01*
Y152184D01*
X165170Y152250D01*
X166207Y152352D01*
X170568D01*
X170941Y152319D01*
X171477Y152231D01*
X171857Y152129D01*
X171920Y152103D01*
Y148179D01*
X171402Y147569D01*
X169186Y145354D01*
X168358Y144113D01*
X168067Y142650D01*
Y136253D01*
X168059Y135823D01*
X168038Y135525D01*
X168036Y135518D01*
X168036Y135510D01*
X168028Y135449D01*
X167812Y134360D01*
Y119360D01*
X167896Y118934D01*
X166816Y117853D01*
X166390Y117938D01*
X151390D01*
X149829Y117628D01*
X148506Y116744D01*
X147622Y115421D01*
X147312Y113860D01*
X147622Y112299D01*
X148250Y111360D01*
X147622Y110421D01*
X147312Y108860D01*
X147622Y107299D01*
X148250Y106360D01*
X147622Y105421D01*
X147312Y103860D01*
X147622Y102299D01*
X148250Y101360D01*
X147622Y100421D01*
X147312Y98860D01*
X147622Y97299D01*
X148250Y96360D01*
X147622Y95421D01*
X147312Y93860D01*
X147622Y92299D01*
X148250Y91360D01*
X147622Y90421D01*
X147312Y88860D01*
X147622Y87299D01*
X148250Y86360D01*
X147622Y85421D01*
X147312Y83860D01*
X147622Y82299D01*
X148250Y81360D01*
X147622Y80421D01*
X147312Y78860D01*
X147350Y78665D01*
X146545Y77683D01*
X144985D01*
X143713Y78955D01*
Y91827D01*
X143422Y93290D01*
X142594Y94530D01*
X137980Y99144D01*
X136740Y99972D01*
X135277Y100263D01*
X131860D01*
Y100440D01*
X129423D01*
X129330Y100458D01*
X129237Y100440D01*
X118360D01*
Y100440D01*
X117860D01*
Y100440D01*
X106983D01*
X106890Y100458D01*
X106844Y100449D01*
X106797Y100457D01*
X106340Y100440D01*
X104360D01*
Y100391D01*
X98732D01*
Y105508D01*
X98441Y106972D01*
X97613Y108212D01*
X96441Y109384D01*
X95201Y110212D01*
X93737Y110503D01*
X90657D01*
X90272Y110973D01*
Y112473D01*
X90019Y113741D01*
X89694Y114227D01*
X90019Y114714D01*
X90272Y115982D01*
Y117482D01*
X90019Y118750D01*
X89514Y119507D01*
X89976Y120199D01*
X90286Y121760D01*
Y124760D01*
X90091Y125740D01*
X90173Y125795D01*
X91389Y127614D01*
X91716Y129260D01*
X86922D01*
X86495Y128833D01*
X85748Y128524D01*
X71476D01*
X71203Y128524D01*
X70699Y128733D01*
X70313Y129118D01*
X70104Y129623D01*
Y129895D01*
Y131826D01*
X70103Y131826D01*
X70035Y132520D01*
X69505Y133801D01*
X68524Y134783D01*
X67242Y135314D01*
X66548Y135382D01*
X64821D01*
X65127Y134930D01*
X64979Y134563D01*
X64642Y134452D01*
X63866Y134660D01*
X62154D01*
X60501Y134217D01*
X59019Y133361D01*
X58791Y133133D01*
X58504Y133035D01*
X57274Y133118D01*
X57273Y133118D01*
X56518Y133873D01*
X56517Y133874D01*
X56517Y133874D01*
X56106Y134148D01*
X55691Y134426D01*
X55690Y134426D01*
X55690Y134426D01*
X54703Y134835D01*
X54703Y134835D01*
X54703Y134835D01*
X54273Y134920D01*
X53727Y135029D01*
X53727Y135029D01*
X53727Y135029D01*
X53196Y135028D01*
X53194Y135029D01*
X37048D01*
X37025Y135382D01*
X21844Y135382D01*
X20935D01*
X19254Y136078D01*
X17968Y137364D01*
X17272Y139045D01*
Y139954D01*
Y155956D01*
X17272Y156967D01*
X18045Y158834D01*
X19474Y160263D01*
X21342Y161036D01*
X22352Y161036D01*
X27210D01*
Y164320D01*
X22210D01*
X20383Y164080D01*
X18680Y163375D01*
X17281Y162301D01*
X16992Y162348D01*
X16011Y162766D01*
Y165737D01*
X16030Y165930D01*
X16222Y166394D01*
X16486Y166657D01*
X16950Y166850D01*
X17147Y166869D01*
X38100D01*
X39075Y167063D01*
X39086Y167070D01*
X40220D01*
Y168091D01*
X40455Y168443D01*
X40649Y169418D01*
X40649Y188468D01*
X40455Y189443D01*
X40220Y189795D01*
Y191070D01*
X20220D01*
Y191017D01*
X7366Y191017D01*
X6608Y191017D01*
X5633Y190823D01*
X4839Y190494D01*
X3636Y191199D01*
X3569Y191307D01*
Y196431D01*
X133526D01*
X133846Y196262D01*
D02*
G37*
G36*
X38100Y169418D02*
X17018D01*
X17018Y169418D01*
X16324Y169349D01*
X15042Y168818D01*
X14061Y167837D01*
X13530Y166556D01*
X13462Y165862D01*
Y136144D01*
X13462Y136144D01*
X13532Y135429D01*
X14080Y134108D01*
X15090Y133097D01*
X16411Y132550D01*
X17126Y132480D01*
X53194D01*
X53194Y132479D01*
X53728Y132480D01*
X54715Y132071D01*
X55471Y131315D01*
X55880Y130328D01*
X55880Y129794D01*
X55880Y129793D01*
X55950Y129079D01*
X56498Y127758D01*
X57508Y126747D01*
X58829Y126200D01*
X59544Y126130D01*
X84836Y126130D01*
Y120542D01*
X46610D01*
X46610Y120541D01*
X45762Y120458D01*
X44196Y119810D01*
X42996Y118613D01*
X42345Y117047D01*
X42260Y116200D01*
X42194Y81508D01*
X42194Y81508D01*
X42265Y80770D01*
X42828Y79406D01*
X43870Y78362D01*
X45233Y77797D01*
X45971Y77724D01*
X84836D01*
Y72136D01*
X58166D01*
X57720Y72092D01*
X56896Y71751D01*
X56265Y71120D01*
X55924Y70296D01*
X55880Y69850D01*
X55880Y68326D01*
Y67821D01*
X55493Y66887D01*
X54779Y66173D01*
X53845Y65786D01*
X7112D01*
Y65786D01*
X6405Y65786D01*
X5098Y66327D01*
X4097Y67328D01*
X3556Y68635D01*
Y69342D01*
Y184658D01*
X3556Y185416D01*
X4136Y186816D01*
X5208Y187888D01*
X6608Y188468D01*
X7366Y188468D01*
X38100Y188468D01*
X38100Y169418D01*
D02*
G37*
G36*
X265820Y179460D02*
X268427D01*
X269025Y178397D01*
X268469Y177410D01*
X265820D01*
Y174257D01*
X265757Y174231D01*
X265377Y174129D01*
X264841Y174041D01*
X264468Y174008D01*
X255270D01*
X253319Y173620D01*
X251665Y172515D01*
X248617Y169467D01*
X247512Y167813D01*
X247124Y165862D01*
Y165118D01*
X243531D01*
X243159Y165151D01*
X242623Y165239D01*
X242243Y165341D01*
X242180Y165367D01*
Y169196D01*
X225180D01*
Y166043D01*
X225117Y166017D01*
X224737Y165915D01*
X224201Y165827D01*
X223829Y165794D01*
X223211D01*
X222839Y165827D01*
X222303Y165915D01*
X221923Y166017D01*
X221860Y166043D01*
Y169196D01*
X204860D01*
Y166043D01*
X204797Y166017D01*
X204417Y165915D01*
X203881Y165827D01*
X203508Y165794D01*
X200100D01*
X199842Y165812D01*
X199267Y165887D01*
X198920Y165960D01*
Y167680D01*
X196483D01*
X196390Y167698D01*
X196297Y167680D01*
X171920D01*
Y162797D01*
X171857Y162771D01*
X171477Y162669D01*
X170941Y162581D01*
X170568Y162548D01*
X166046D01*
X165784Y162566D01*
X165210Y162642D01*
X164860Y162716D01*
Y164450D01*
X164317D01*
X163791Y165720D01*
X164599Y166527D01*
X165512Y168732D01*
Y171119D01*
X164599Y173325D01*
X164534Y173389D01*
Y178446D01*
X164534Y178450D01*
X164860D01*
Y180888D01*
X164878Y180980D01*
X164860Y181073D01*
Y192450D01*
X164855D01*
X164855Y194818D01*
X164855Y195172D01*
X164855Y195172D01*
X164855Y195172D01*
X165526Y196203D01*
X165882Y196431D01*
X165882Y196431D01*
X170420D01*
Y187180D01*
X185420D01*
X196390D01*
Y190438D01*
X196460Y189773D01*
X196670Y189178D01*
X197020Y188653D01*
X197509Y188198D01*
X198139Y187813D01*
X198909Y187498D01*
X199820Y187253D01*
X200257Y187180D01*
X200420D01*
Y196431D01*
X265820D01*
Y179460D01*
D02*
G37*
G36*
X475234Y186455D02*
X473964Y185592D01*
X473914Y185611D01*
X473810Y185722D01*
Y191070D01*
X453810D01*
Y167070D01*
X473810D01*
Y172418D01*
X473914Y172528D01*
X473964Y172549D01*
X475234Y171685D01*
Y79093D01*
X474493Y77809D01*
X473760Y75075D01*
Y72245D01*
X473855Y71891D01*
X473082Y70884D01*
X472630D01*
X472262Y70917D01*
X471731Y71005D01*
X471357Y71106D01*
X471270Y71141D01*
Y76770D01*
X451270D01*
Y52770D01*
X450179Y52338D01*
X446786D01*
X446786Y52338D01*
X445225Y52028D01*
X443902Y51144D01*
X443902Y51144D01*
X436461Y43702D01*
X302886D01*
Y44913D01*
X302949Y44939D01*
X303329Y45041D01*
X303865Y45129D01*
X304237Y45162D01*
X334402D01*
X336353Y45550D01*
X338007Y46655D01*
X343711Y52359D01*
X344816Y54013D01*
X345204Y55964D01*
Y78987D01*
X345237Y79365D01*
X345326Y79904D01*
X345416Y80243D01*
X352070D01*
X354411Y80708D01*
X356396Y82034D01*
X357722Y84019D01*
X358187Y86360D01*
X357722Y88701D01*
X356396Y90686D01*
X354411Y92012D01*
X354156Y92063D01*
Y93357D01*
X354411Y93408D01*
X354926Y93752D01*
X354958Y93763D01*
X354987Y93769D01*
X357962Y93962D01*
X360595D01*
X360837Y93719D01*
X363042Y92806D01*
X365429D01*
X367635Y93719D01*
X369323Y95407D01*
X369552Y95961D01*
X370822Y95709D01*
Y89289D01*
X371210Y87338D01*
X372315Y85684D01*
X375244Y82755D01*
X376898Y81650D01*
X378849Y81262D01*
X381834D01*
X382778Y81230D01*
X383762Y81138D01*
X384040Y81095D01*
X384182Y81063D01*
X384214Y81052D01*
X384729Y80708D01*
X387070Y80243D01*
X403070D01*
X405411Y80708D01*
X407396Y82034D01*
X408722Y84019D01*
X409188Y86360D01*
X408722Y88701D01*
X407396Y90686D01*
X405411Y92012D01*
X405156Y92063D01*
Y93357D01*
X405411Y93408D01*
X406316Y94012D01*
X406345Y94026D01*
X406359Y94042D01*
X407396Y94734D01*
X407516Y94915D01*
X408310Y94982D01*
X412750D01*
X412750Y94982D01*
X414311Y95292D01*
X415634Y96176D01*
X418174Y98716D01*
X418174Y98716D01*
X419058Y100039D01*
X419368Y101600D01*
Y106810D01*
X420986Y108427D01*
X422695D01*
X422785Y108409D01*
X422881Y108427D01*
X432946D01*
X433331Y107157D01*
X433070Y106983D01*
X430141Y104054D01*
X429036Y102400D01*
X428648Y100449D01*
Y98751D01*
X428615Y98379D01*
X428527Y97843D01*
X428425Y97463D01*
X428399Y97400D01*
X425246D01*
Y80400D01*
X428399D01*
X428425Y80337D01*
X428527Y79957D01*
X428615Y79421D01*
X428648Y79049D01*
Y78124D01*
X428615Y77752D01*
X428527Y77217D01*
X428425Y76837D01*
X428398Y76770D01*
X420270D01*
Y52770D01*
X440270D01*
Y74154D01*
X440289Y74248D01*
X440270Y74339D01*
Y76770D01*
X438949D01*
X438914Y76988D01*
X438844Y77928D01*
Y79049D01*
X438877Y79421D01*
X438965Y79957D01*
X439067Y80337D01*
X439093Y80400D01*
X442246D01*
Y97400D01*
X443152Y98280D01*
X444746D01*
Y90900D01*
X454746D01*
X464746D01*
Y98900D01*
X462869D01*
X462343Y100170D01*
X464875Y102702D01*
X465980Y104356D01*
X466368Y106307D01*
Y107432D01*
X466389Y107696D01*
X466466Y108194D01*
X466523Y108427D01*
X471270D01*
Y119427D01*
Y132427D01*
X466625D01*
X466590Y132514D01*
X466489Y132889D01*
X466400Y133419D01*
X466368Y133787D01*
Y135376D01*
X465980Y137327D01*
X464875Y138981D01*
X461567Y142289D01*
X459913Y143394D01*
X459802Y143416D01*
X459927Y144686D01*
X466270D01*
Y152686D01*
X456270D01*
X446270D01*
Y145052D01*
X446270Y144686D01*
X445387Y143782D01*
X440932D01*
X440408Y145002D01*
X440905Y146186D01*
X443770D01*
Y163186D01*
X440617D01*
X440591Y163249D01*
X440489Y163629D01*
X440401Y164165D01*
X440368Y164538D01*
Y165718D01*
X440401Y166091D01*
X440489Y166627D01*
X440591Y167007D01*
X440617Y167070D01*
X442810D01*
Y169586D01*
X442819Y169631D01*
X442810Y169676D01*
Y191070D01*
X422810D01*
Y167070D01*
X429923D01*
X429949Y167007D01*
X430051Y166627D01*
X430139Y166091D01*
X430172Y165718D01*
Y164538D01*
X430139Y164165D01*
X430051Y163629D01*
X429949Y163249D01*
X429923Y163186D01*
X426770D01*
Y146186D01*
X429923D01*
X429949Y146123D01*
X430051Y145743D01*
X430139Y145207D01*
X430172Y144834D01*
Y141613D01*
X430560Y139662D01*
X431665Y138008D01*
X434594Y135079D01*
X436248Y133974D01*
X437639Y133697D01*
X437514Y132427D01*
X420270D01*
Y129761D01*
X418270D01*
X418270Y129761D01*
X416709Y129451D01*
X415386Y128567D01*
X415386Y128566D01*
X412406Y125587D01*
X411872Y124788D01*
X410551Y125096D01*
X410377Y126418D01*
X409621Y128242D01*
X408419Y129809D01*
X406852Y131011D01*
X405028Y131767D01*
X403070Y132025D01*
X397070D01*
Y124460D01*
X393070D01*
Y132025D01*
X387070D01*
X385112Y131767D01*
X383288Y131011D01*
X382288Y130244D01*
X381018Y130871D01*
Y143121D01*
X380630Y145072D01*
X379525Y146726D01*
X374056Y152195D01*
X372402Y153300D01*
X370451Y153688D01*
X364776D01*
X364403Y153721D01*
X363867Y153809D01*
X363487Y153911D01*
X363424Y153937D01*
Y157090D01*
X360144D01*
X360118Y157153D01*
X360016Y157533D01*
X359928Y158069D01*
X359895Y158441D01*
Y169678D01*
X359928Y170051D01*
X360016Y170587D01*
X360118Y170967D01*
X360144Y171030D01*
X363670D01*
Y182030D01*
X345670D01*
Y171030D01*
X349450D01*
X349476Y170967D01*
X349578Y170587D01*
X349666Y170051D01*
X349699Y169678D01*
Y158441D01*
X349666Y158069D01*
X349578Y157533D01*
X349476Y157153D01*
X349450Y157090D01*
X346424D01*
Y140090D01*
X363424D01*
Y143243D01*
X363487Y143269D01*
X363867Y143371D01*
X364403Y143459D01*
X364776Y143492D01*
X368339D01*
X370822Y141009D01*
Y101903D01*
X369552Y101651D01*
X369323Y102205D01*
X367635Y103893D01*
X365429Y104806D01*
X363042D01*
X361478Y104158D01*
X357306D01*
X356558Y104183D01*
X356306Y104653D01*
X356206Y105480D01*
X357419Y106411D01*
X358621Y107978D01*
X359152Y109258D01*
X358554Y109255D01*
X354622Y109000D01*
X354269Y108920D01*
X354001Y108830D01*
X353820Y108729D01*
Y109760D01*
X344070D01*
Y113760D01*
X353820D01*
Y114791D01*
X354001Y114690D01*
X354269Y114600D01*
X354622Y114520D01*
X355062Y114451D01*
X356201Y114345D01*
X358554Y114265D01*
X359152Y114262D01*
X358621Y115542D01*
X357419Y117109D01*
X355852Y118311D01*
X355748Y118354D01*
X355624Y119618D01*
X356396Y120134D01*
X357722Y122119D01*
X358187Y124460D01*
X357722Y126801D01*
X356396Y128786D01*
X354411Y130112D01*
X352070Y130577D01*
X336070D01*
X333729Y130112D01*
X333123Y129707D01*
X332949Y129639D01*
X332827Y129561D01*
X332770Y129535D01*
X332585Y129473D01*
X332285Y129398D01*
X331953Y129337D01*
X329857Y129175D01*
X328557D01*
X326606Y128787D01*
X325300Y127915D01*
X324030Y128414D01*
Y138314D01*
X324030Y138590D01*
X324697Y138590D01*
X331418D01*
X331406Y139136D01*
X331261Y140524D01*
X331134Y141089D01*
X330972Y141566D01*
X330773Y141957D01*
X330537Y142260D01*
X330266Y142477D01*
X329958Y142608D01*
X329614Y142651D01*
X331924D01*
Y146590D01*
X327954D01*
Y143420D01*
X327905Y143895D01*
X327755Y144320D01*
X327505Y144695D01*
X327155Y145020D01*
X326704Y145295D01*
X326155Y145520D01*
X325504Y145695D01*
X324754Y145820D01*
X323924Y145893D01*
Y139816D01*
X323924Y139540D01*
X323257Y139540D01*
X320030D01*
Y145894D01*
X319188Y145820D01*
X318434Y145695D01*
X317780Y145520D01*
X317227Y145295D01*
X316774Y145020D01*
X316422Y144695D01*
X316170Y144320D01*
X316019Y143895D01*
X315969Y143420D01*
Y146250D01*
X313030D01*
Y148250D01*
D01*
Y146250D01*
X306030D01*
Y139540D01*
X304030D01*
Y131540D01*
X314030D01*
Y127540D01*
X304030D01*
Y120414D01*
X302541D01*
X301530Y121040D01*
X301530Y121684D01*
Y138040D01*
X299675D01*
X299530Y139250D01*
X299530Y139250D01*
Y141687D01*
X299548Y141781D01*
X299530Y141874D01*
Y157250D01*
X288530D01*
Y153427D01*
X288467Y153401D01*
X288087Y153299D01*
X287551Y153211D01*
X287178Y153178D01*
X284172D01*
X283799Y153211D01*
X283263Y153299D01*
X282883Y153401D01*
X282820Y153427D01*
Y156410D01*
X265820D01*
Y139410D01*
X282820D01*
Y142733D01*
X282883Y142759D01*
X283263Y142861D01*
X283799Y142949D01*
X284172Y142982D01*
X287178D01*
X287551Y142949D01*
X288087Y142861D01*
X288432Y142768D01*
Y139391D01*
X288399Y139019D01*
X288311Y138483D01*
X288209Y138103D01*
X288183Y138040D01*
X284530D01*
Y121684D01*
X284530Y121040D01*
X283519Y120414D01*
X276995D01*
X275044Y120026D01*
X273390Y118921D01*
X270461Y115992D01*
X269356Y114338D01*
X268968Y112387D01*
Y84682D01*
X267812Y84191D01*
X267037Y84871D01*
X267008Y84911D01*
X266986Y84992D01*
X266967Y85087D01*
Y92300D01*
X266676Y93763D01*
X265848Y95003D01*
X264383Y96468D01*
X263143Y97297D01*
X261679Y97588D01*
X252216D01*
X251411Y98569D01*
X251468Y98860D01*
X251158Y100421D01*
X250530Y101360D01*
X251158Y102299D01*
X251468Y103860D01*
X251158Y105421D01*
X250530Y106360D01*
X251158Y107299D01*
X251468Y108860D01*
X251158Y110421D01*
X250530Y111360D01*
X251158Y112299D01*
X251468Y113860D01*
X251158Y115421D01*
X250274Y116744D01*
X248951Y117628D01*
X247390Y117938D01*
X232390D01*
X231964Y117853D01*
X230884Y118934D01*
X230968Y119360D01*
Y134360D01*
X230658Y135921D01*
X229774Y137244D01*
X228451Y138128D01*
X226890Y138438D01*
X225329Y138128D01*
X224390Y137500D01*
X223451Y138128D01*
X221890Y138438D01*
X220329Y138128D01*
X219390Y137500D01*
X218451Y138128D01*
X216890Y138438D01*
X215329Y138128D01*
X214390Y137500D01*
X213451Y138128D01*
X211890Y138438D01*
X210329Y138128D01*
X209390Y137500D01*
X208451Y138128D01*
X206890Y138438D01*
X205329Y138128D01*
X204390Y137500D01*
X203451Y138128D01*
X201890Y138438D01*
X200910Y138243D01*
X200855Y138325D01*
X199036Y139541D01*
X196890Y139968D01*
X196695Y139929D01*
X195713Y140735D01*
Y142680D01*
X198920D01*
Y155341D01*
X199007Y155376D01*
X199382Y155477D01*
X199911Y155566D01*
X200280Y155598D01*
X203508D01*
X203881Y155565D01*
X204417Y155477D01*
X204797Y155375D01*
X204860Y155349D01*
Y152196D01*
X221860D01*
Y155349D01*
X221923Y155375D01*
X222303Y155477D01*
X222839Y155565D01*
X223211Y155598D01*
X223829D01*
X224201Y155565D01*
X224737Y155477D01*
X225117Y155375D01*
X225180Y155349D01*
Y152196D01*
X242180D01*
Y154673D01*
X242243Y154699D01*
X242623Y154801D01*
X243159Y154889D01*
X243531Y154922D01*
X249293D01*
X251244Y155310D01*
X252898Y156415D01*
X255827Y159344D01*
X256932Y160998D01*
X257320Y162949D01*
Y163750D01*
X257382Y163812D01*
X264468D01*
X264841Y163779D01*
X265377Y163691D01*
X265757Y163589D01*
X265820Y163563D01*
Y160410D01*
X282820D01*
Y167625D01*
X282888Y167653D01*
X283268Y167755D01*
X283803Y167843D01*
X284174Y167876D01*
X285427D01*
X287605Y166974D01*
X289991D01*
X292197Y167887D01*
X293885Y169575D01*
X294798Y171780D01*
Y174167D01*
X293885Y176373D01*
X292197Y178061D01*
X291884Y178190D01*
X292137Y179460D01*
X297885D01*
X298030Y178250D01*
X298030D01*
Y160250D01*
X309030D01*
Y168152D01*
X309491D01*
X311442Y168540D01*
X313051Y169615D01*
X313164Y169594D01*
X314117Y168870D01*
X313786Y168071D01*
Y165685D01*
X314699Y163479D01*
X316387Y161791D01*
X318592Y160878D01*
X320979D01*
X323185Y161791D01*
X323249Y161856D01*
X324665D01*
X324670Y161856D01*
Y161530D01*
X327108D01*
X327201Y161511D01*
X327293Y161530D01*
X342670D01*
Y172530D01*
X327401D01*
X327345Y172544D01*
X327272Y172534D01*
X327201Y172549D01*
X327108Y172530D01*
X324670D01*
Y172102D01*
X323817Y172052D01*
X322974D01*
X320979Y172878D01*
X318592D01*
X317435Y172398D01*
X316593Y173424D01*
X317130Y174228D01*
X317518Y176179D01*
Y180932D01*
X317833Y181042D01*
X318399Y181192D01*
X319038Y181314D01*
X319750Y181405D01*
X320128Y181432D01*
X323900D01*
X324556Y181400D01*
X324670Y181388D01*
Y180530D01*
X327108D01*
X327201Y180511D01*
X327294Y180530D01*
X342670D01*
Y191530D01*
X333662D01*
X333170Y191628D01*
X305173D01*
X304802Y191661D01*
X304267Y191749D01*
X303887Y191851D01*
X303820Y191878D01*
Y196431D01*
X475234D01*
Y186455D01*
D02*
G37*
G36*
X327201Y189000D02*
Y183060D01*
X327150Y183245D01*
X327001Y183410D01*
X326750Y183555D01*
X326400Y183681D01*
X325951Y183788D01*
X325401Y183875D01*
X324751Y183943D01*
X323150Y184020D01*
X322201Y184030D01*
Y189030D01*
X327201Y189000D01*
D02*
G37*
G36*
X301311Y191055D02*
X301463Y190630D01*
X301715Y190255D01*
X302068Y189930D01*
X302521Y189655D01*
X303074Y189430D01*
X303727Y189255D01*
X304481Y189130D01*
X305335Y189055D01*
X306290Y189030D01*
Y184030D01*
X305340Y184010D01*
X303739Y183846D01*
X303090Y183704D01*
X302540Y183520D01*
X302090Y183296D01*
X301740Y183031D01*
X301490Y182725D01*
X301339Y182378D01*
X301290Y181991D01*
X301259Y191530D01*
X301311Y191055D01*
D02*
G37*
G36*
X321385Y184030D02*
X320412Y184008D01*
X319497Y183942D01*
X318637Y183832D01*
X317833Y183678D01*
X317085Y183481D01*
X316394Y183239D01*
X315758Y182954D01*
X315179Y182624D01*
X314655Y182251D01*
X314188Y181833D01*
X315349Y186530D01*
Y189030D01*
X321385Y184030D01*
D02*
G37*
G36*
X162255Y180931D02*
X162188Y180781D01*
X162129Y180530D01*
X162078Y180180D01*
X161999Y179181D01*
X161936Y175980D01*
X156936D01*
X156931Y176931D01*
X156740Y180180D01*
X156669Y180530D01*
X156587Y180781D01*
X156494Y180930D01*
X156390Y180980D01*
X162329D01*
X162255Y180931D01*
D02*
G37*
G36*
X278845Y181971D02*
X278420Y181820D01*
X278045Y181568D01*
X277720Y181216D01*
X277445Y180763D01*
X277220Y180210D01*
X277045Y179556D01*
X276920Y178801D01*
X276888Y178439D01*
X276920Y178079D01*
X277045Y177330D01*
X277220Y176679D01*
X277445Y176129D01*
X277720Y175679D01*
X278045Y175329D01*
X278420Y175079D01*
X278845Y174930D01*
X279320Y174879D01*
X269320D01*
X269795Y174930D01*
X270220Y175079D01*
X270595Y175329D01*
X270920Y175679D01*
X271195Y176129D01*
X271420Y176679D01*
X271595Y177330D01*
X271720Y178079D01*
X271752Y178439D01*
X271720Y178801D01*
X271595Y179556D01*
X271420Y180210D01*
X271195Y180763D01*
X270920Y181216D01*
X270595Y181568D01*
X270220Y181820D01*
X269795Y181971D01*
X269320Y182021D01*
X279320D01*
X278845Y181971D01*
D02*
G37*
G36*
X471329Y183595D02*
X471479Y183170D01*
X471730Y182795D01*
X472080Y182470D01*
X472529Y182195D01*
X473079Y181970D01*
X473730Y181795D01*
X474479Y181670D01*
X475330Y181595D01*
X476279Y181570D01*
Y176570D01*
X475330Y176545D01*
X474479Y176470D01*
X473730Y176345D01*
X473079Y176170D01*
X472529Y175945D01*
X472080Y175670D01*
X471730Y175345D01*
X471479Y174970D01*
X471329Y174545D01*
X471279Y174070D01*
Y184070D01*
X471329Y183595D01*
D02*
G37*
G36*
X309491Y170750D02*
X308917Y170745D01*
X307226Y170627D01*
X306954Y170573D01*
X306742Y170509D01*
X306591Y170435D01*
X306500Y170352D01*
X306469Y170259D01*
X306500Y175720D01*
X309491Y175750D01*
Y170750D01*
D02*
G37*
G36*
X359322Y173541D02*
X358897Y173390D01*
X358522Y173138D01*
X358197Y172786D01*
X357922Y172333D01*
X357697Y171780D01*
X357522Y171126D01*
X357397Y170371D01*
X357322Y169516D01*
X357297Y168561D01*
X352297D01*
X352272Y169516D01*
X352197Y170371D01*
X352072Y171126D01*
X351897Y171780D01*
X351672Y172333D01*
X351397Y172786D01*
X351072Y173138D01*
X350697Y173390D01*
X350272Y173541D01*
X349797Y173591D01*
X359797D01*
X359322Y173541D01*
D02*
G37*
G36*
X285289Y170474D02*
X284336Y170449D01*
X283482Y170374D01*
X282729Y170249D01*
X282075Y170074D01*
X281522Y169849D01*
X281069Y169574D01*
X280716Y169249D01*
X280464Y168874D01*
X280311Y168449D01*
X280259Y167974D01*
X280289Y174879D01*
X285289Y175474D01*
Y170474D01*
D02*
G37*
G36*
X327201Y164060D02*
X327150Y164135D01*
X327001Y164202D01*
X326750Y164261D01*
X326400Y164312D01*
X325401Y164391D01*
X322201Y164454D01*
Y169454D01*
X323150Y169459D01*
X326400Y169650D01*
X326750Y169721D01*
X327001Y169803D01*
X327150Y169896D01*
X327201Y170000D01*
Y164060D01*
D02*
G37*
G36*
X268381Y163910D02*
X268331Y164385D01*
X268180Y164810D01*
X267928Y165185D01*
X267576Y165510D01*
X267123Y165785D01*
X266570Y166010D01*
X265916Y166185D01*
X265161Y166310D01*
X264306Y166385D01*
X263351Y166410D01*
Y171410D01*
X264306Y171435D01*
X265161Y171510D01*
X265916Y171635D01*
X266570Y171810D01*
X267123Y172035D01*
X267576Y172310D01*
X267928Y172635D01*
X268180Y173010D01*
X268331Y173435D01*
X268381Y173910D01*
Y163910D01*
D02*
G37*
G36*
X227741Y155696D02*
X227691Y156171D01*
X227540Y156596D01*
X227288Y156971D01*
X226936Y157296D01*
X226483Y157571D01*
X225930Y157796D01*
X225276Y157971D01*
X224522Y158096D01*
X223666Y158171D01*
X223520Y158175D01*
X223374Y158171D01*
X222519Y158096D01*
X221764Y157971D01*
X221110Y157796D01*
X220557Y157571D01*
X220104Y157296D01*
X219752Y156971D01*
X219500Y156596D01*
X219349Y156171D01*
X219299Y155696D01*
Y165696D01*
X219349Y165221D01*
X219500Y164796D01*
X219752Y164421D01*
X220104Y164096D01*
X220557Y163821D01*
X221110Y163596D01*
X221764Y163421D01*
X222519Y163296D01*
X223374Y163221D01*
X223520Y163217D01*
X223666Y163221D01*
X224522Y163296D01*
X225276Y163421D01*
X225930Y163596D01*
X226483Y163821D01*
X226936Y164096D01*
X227288Y164421D01*
X227540Y164796D01*
X227691Y165221D01*
X227741Y165696D01*
Y155696D01*
D02*
G37*
G36*
X500700Y161780D02*
X499556Y162901D01*
X497338Y164789D01*
X496266Y165556D01*
X495217Y166205D01*
X494192Y166736D01*
X493191Y167149D01*
X492215Y167444D01*
X491262Y167621D01*
X490333Y167680D01*
Y172680D01*
X491262Y172739D01*
X492215Y172916D01*
X493191Y173211D01*
X494192Y173624D01*
X495217Y174155D01*
X496266Y174804D01*
X497338Y175571D01*
X498435Y176456D01*
X500700Y178580D01*
Y161780D01*
D02*
G37*
G36*
X439795Y169581D02*
X439370Y169430D01*
X438995Y169178D01*
X438670Y168826D01*
X438395Y168373D01*
X438170Y167820D01*
X437995Y167166D01*
X437870Y166411D01*
X437795Y165556D01*
X437784Y165128D01*
X437795Y164700D01*
X437870Y163845D01*
X437995Y163090D01*
X438170Y162436D01*
X438395Y161883D01*
X438670Y161430D01*
X438995Y161078D01*
X439370Y160826D01*
X439795Y160675D01*
X440270Y160625D01*
X430270D01*
X430745Y160675D01*
X431170Y160826D01*
X431545Y161078D01*
X431870Y161430D01*
X432145Y161883D01*
X432370Y162436D01*
X432545Y163090D01*
X432670Y163845D01*
X432745Y164700D01*
X432756Y165128D01*
X432745Y165556D01*
X432670Y166411D01*
X432545Y167166D01*
X432370Y167820D01*
X432145Y168373D01*
X431870Y168826D01*
X431545Y169178D01*
X431170Y169430D01*
X430745Y169581D01*
X430270Y169631D01*
X440270D01*
X439795Y169581D01*
D02*
G37*
G36*
X207421Y155696D02*
X207371Y156171D01*
X207220Y156596D01*
X206968Y156971D01*
X206616Y157296D01*
X206163Y157571D01*
X205610Y157796D01*
X204956Y157971D01*
X204202Y158096D01*
X203346Y158171D01*
X202390Y158196D01*
Y163196D01*
X203346Y163221D01*
X204202Y163296D01*
X204956Y163421D01*
X205610Y163596D01*
X206163Y163821D01*
X206616Y164096D01*
X206968Y164421D01*
X207220Y164796D01*
X207371Y165221D01*
X207421Y165696D01*
Y155696D01*
D02*
G37*
G36*
X196439Y164778D02*
X196590Y164446D01*
X196840Y164153D01*
X197190Y163899D01*
X197640Y163684D01*
X198190Y163509D01*
X198839Y163372D01*
X199590Y163274D01*
X200439Y163216D01*
X201390Y163196D01*
Y158196D01*
X200439Y158171D01*
X199590Y158096D01*
X198839Y157971D01*
X198190Y157796D01*
X197640Y157571D01*
X197190Y157296D01*
X196840Y156971D01*
X196590Y156596D01*
X196439Y156171D01*
X196390Y155696D01*
Y165149D01*
X196439Y164778D01*
D02*
G37*
G36*
X239669Y164545D02*
X239820Y164120D01*
X240072Y163745D01*
X240424Y163420D01*
X240877Y163145D01*
X241430Y162920D01*
X242084Y162745D01*
X242838Y162620D01*
X243694Y162545D01*
X244650Y162520D01*
Y157520D01*
X243694Y157495D01*
X242838Y157420D01*
X242084Y157295D01*
X241430Y157120D01*
X240877Y156895D01*
X240424Y156620D01*
X240072Y156295D01*
X239820Y155920D01*
X239669Y155495D01*
X239619Y155020D01*
Y165020D01*
X239669Y164545D01*
D02*
G37*
G36*
X357322Y158604D02*
X357397Y157748D01*
X357522Y156994D01*
X357697Y156340D01*
X357922Y155787D01*
X358197Y155334D01*
X358522Y154982D01*
X358897Y154730D01*
X359322Y154579D01*
X359797Y154529D01*
X349797D01*
X350272Y154579D01*
X350697Y154730D01*
X351072Y154982D01*
X351397Y155334D01*
X351672Y155787D01*
X351897Y156340D01*
X352072Y156994D01*
X352197Y157748D01*
X352272Y158604D01*
X352297Y159559D01*
X357297D01*
X357322Y158604D01*
D02*
G37*
G36*
X162379Y161545D02*
X162529Y161210D01*
X162779Y160915D01*
X163129Y160659D01*
X163579Y160442D01*
X164129Y160265D01*
X164779Y160127D01*
X165529Y160029D01*
X166379Y159970D01*
X167329Y159950D01*
Y154950D01*
X166379Y154930D01*
X164779Y154773D01*
X164129Y154635D01*
X163579Y154458D01*
X163129Y154241D01*
X162779Y153985D01*
X162529Y153689D01*
X162379Y153355D01*
X162329Y152980D01*
Y161919D01*
X162379Y161545D01*
D02*
G37*
G36*
X174481Y152450D02*
X174431Y152925D01*
X174280Y153350D01*
X174028Y153725D01*
X173676Y154050D01*
X173223Y154325D01*
X172670Y154550D01*
X172016Y154725D01*
X171262Y154850D01*
X170406Y154925D01*
X169450Y154950D01*
Y159950D01*
X170406Y159975D01*
X171262Y160050D01*
X172016Y160175D01*
X172670Y160350D01*
X173223Y160575D01*
X173676Y160850D01*
X174028Y161175D01*
X174280Y161550D01*
X174431Y161975D01*
X174481Y162450D01*
Y152450D01*
D02*
G37*
G36*
X177986Y145241D02*
X177794Y145379D01*
X177567Y145447D01*
X177303Y145444D01*
X177003Y145370D01*
X176668Y145226D01*
X176296Y145010D01*
X175889Y144725D01*
X175445Y144368D01*
X174450Y143443D01*
X172683Y145211D01*
X173181Y145726D01*
X173965Y146649D01*
X174251Y147056D01*
X174466Y147428D01*
X174610Y147763D01*
X174684Y148063D01*
X174687Y148327D01*
X174619Y148554D01*
X174481Y148746D01*
X177986Y145241D01*
D02*
G37*
G36*
X439795Y148697D02*
X439370Y148546D01*
X438995Y148294D01*
X438670Y147942D01*
X438395Y147489D01*
X438170Y146936D01*
X437995Y146282D01*
X437870Y145527D01*
X437795Y144672D01*
X437770Y143716D01*
X432770D01*
X432745Y144672D01*
X432670Y145527D01*
X432545Y146282D01*
X432370Y146936D01*
X432145Y147489D01*
X431870Y147942D01*
X431545Y148294D01*
X431170Y148546D01*
X430745Y148697D01*
X430270Y148747D01*
X440270D01*
X439795Y148697D01*
D02*
G37*
G36*
X360913Y153115D02*
X361064Y152690D01*
X361316Y152315D01*
X361668Y151990D01*
X362121Y151715D01*
X362674Y151490D01*
X363328Y151315D01*
X364082Y151190D01*
X364938Y151115D01*
X365894Y151090D01*
Y146090D01*
X364938Y146065D01*
X364082Y145990D01*
X363328Y145865D01*
X362674Y145690D01*
X362121Y145465D01*
X361668Y145190D01*
X361316Y144865D01*
X361064Y144490D01*
X360913Y144065D01*
X360863Y143590D01*
Y153590D01*
X360913Y153115D01*
D02*
G37*
G36*
X291091Y143080D02*
X291041Y143555D01*
X290890Y143980D01*
X290638Y144355D01*
X290286Y144680D01*
X289833Y144955D01*
X289280Y145180D01*
X288626Y145355D01*
X287871Y145480D01*
X287016Y145555D01*
X286061Y145580D01*
Y150580D01*
X287016Y150605D01*
X287871Y150680D01*
X288626Y150805D01*
X289280Y150980D01*
X289833Y151205D01*
X290286Y151480D01*
X290638Y151805D01*
X290890Y152180D01*
X291041Y152605D01*
X291091Y153080D01*
Y143080D01*
D02*
G37*
G36*
X280309Y152605D02*
X280460Y152180D01*
X280712Y151805D01*
X281064Y151480D01*
X281517Y151205D01*
X282070Y150980D01*
X282724Y150805D01*
X283479Y150680D01*
X284334Y150605D01*
X285289Y150580D01*
Y145580D01*
X284334Y145555D01*
X283479Y145480D01*
X282724Y145355D01*
X282070Y145180D01*
X281517Y144955D01*
X281064Y144680D01*
X280712Y144355D01*
X280460Y143980D01*
X280309Y143555D01*
X280259Y143080D01*
Y153080D01*
X280309Y152605D01*
D02*
G37*
G36*
X194153Y145216D02*
X193940Y145140D01*
X193752Y145013D01*
X193590Y144836D01*
X193452Y144608D01*
X193340Y144330D01*
X193253Y144001D01*
X193190Y143621D01*
X193153Y143191D01*
X193140Y142711D01*
X190640D01*
X190627Y143191D01*
X190590Y143621D01*
X190527Y144001D01*
X190440Y144330D01*
X190327Y144608D01*
X190190Y144836D01*
X190028Y145013D01*
X189840Y145140D01*
X189627Y145216D01*
X189390Y145241D01*
X194390D01*
X194153Y145216D01*
D02*
G37*
G36*
X189153D02*
X188940Y145140D01*
X188752Y145013D01*
X188590Y144836D01*
X188452Y144608D01*
X188340Y144330D01*
X188253Y144001D01*
X188190Y143621D01*
X188153Y143191D01*
X188140Y142711D01*
X185640D01*
X185627Y143191D01*
X185590Y143621D01*
X185527Y144001D01*
X185440Y144330D01*
X185327Y144608D01*
X185190Y144836D01*
X185028Y145013D01*
X184840Y145140D01*
X184627Y145216D01*
X184390Y145241D01*
X189390D01*
X189153Y145216D01*
D02*
G37*
G36*
X316005Y141730D02*
X316010Y141580D01*
X316015Y140510D01*
X316030D01*
X316055Y139554D01*
X316130Y138699D01*
X316255Y137944D01*
X316430Y137290D01*
X316655Y136737D01*
X316930Y136284D01*
X317255Y135932D01*
X317630Y135680D01*
X318055Y135529D01*
X318530Y135479D01*
X308530D01*
X309005Y135529D01*
X309430Y135680D01*
X309805Y135932D01*
X310130Y136284D01*
X310405Y136737D01*
X310630Y137290D01*
X310805Y137944D01*
X310930Y138699D01*
X310946Y138881D01*
X310875Y139980D01*
X310788Y140531D01*
X310681Y140981D01*
X310555Y141330D01*
X310410Y141580D01*
X310245Y141730D01*
X310061Y141781D01*
X316000D01*
X316005Y141730D01*
D02*
G37*
G36*
X296815D02*
X296651Y141580D01*
X296505Y141330D01*
X296379Y140981D01*
X296272Y140531D01*
X296185Y139980D01*
X296117Y139331D01*
X296102Y139017D01*
X296130Y138699D01*
X296255Y137944D01*
X296430Y137290D01*
X296655Y136737D01*
X296930Y136284D01*
X297255Y135932D01*
X297630Y135680D01*
X298055Y135529D01*
X298530Y135479D01*
X288530D01*
X289005Y135529D01*
X289430Y135680D01*
X289805Y135932D01*
X290130Y136284D01*
X290405Y136737D01*
X290630Y137290D01*
X290805Y137944D01*
X290930Y138699D01*
X291005Y139554D01*
X291030Y140510D01*
X291053D01*
X291061Y141781D01*
X296999D01*
X296815Y141730D01*
D02*
G37*
G36*
X193274Y134933D02*
X190506D01*
X190531Y134997D01*
X190554Y135106D01*
X190574Y135261D01*
X190606Y135709D01*
X190640Y137634D01*
X193140D01*
X193274Y134933D01*
D02*
G37*
G36*
X188274D02*
X185506D01*
X185531Y134997D01*
X185554Y135106D01*
X185574Y135261D01*
X185606Y135709D01*
X185640Y137634D01*
X188140D01*
X188274Y134933D01*
D02*
G37*
G36*
X173274D02*
X170506D01*
X170531Y134997D01*
X170554Y135106D01*
X170574Y135261D01*
X170606Y135709D01*
X170640Y137634D01*
X173140D01*
X173274Y134933D01*
D02*
G37*
G36*
X463795Y133947D02*
X463870Y133097D01*
X463995Y132347D01*
X464170Y131697D01*
X464395Y131147D01*
X464670Y130697D01*
X464995Y130347D01*
X465370Y130097D01*
X465795Y129947D01*
X466270Y129897D01*
X456270D01*
X456745Y129947D01*
X457170Y130097D01*
X457545Y130347D01*
X457870Y130697D01*
X458145Y131147D01*
X458370Y131697D01*
X458545Y132347D01*
X458670Y133097D01*
X458745Y133947D01*
X458770Y134897D01*
X463770D01*
X463795Y133947D01*
D02*
G37*
G36*
X422831Y122683D02*
X422801Y122968D01*
X422710Y123223D01*
X422558Y123448D01*
X422346Y123643D01*
X422073Y123808D01*
X421740Y123943D01*
X421346Y124048D01*
X420891Y124123D01*
X420376Y124168D01*
X419800Y124183D01*
Y127183D01*
X420376Y127198D01*
X420891Y127243D01*
X421346Y127318D01*
X421740Y127423D01*
X422073Y127558D01*
X422346Y127723D01*
X422558Y127918D01*
X422710Y128143D01*
X422801Y128398D01*
X422831Y128683D01*
Y122683D01*
D02*
G37*
G36*
X334320Y121429D02*
X334234Y121458D01*
X334051Y121483D01*
X333772Y121505D01*
X330935Y121571D01*
X329128Y121577D01*
X328557Y126577D01*
X329438Y126587D01*
X332284Y126806D01*
X332827Y126906D01*
X333302Y127025D01*
X333709Y127162D01*
X334048Y127317D01*
X334320Y127491D01*
Y121429D01*
D02*
G37*
G36*
X188249Y118723D02*
X188226Y118614D01*
X188206Y118459D01*
X188174Y118011D01*
X188140Y116086D01*
X185640D01*
X185506Y118787D01*
X188274D01*
X188249Y118723D01*
D02*
G37*
G36*
X62610Y114234D02*
X62387Y113999D01*
X62179Y113754D01*
X61986Y113499D01*
X61809Y113235D01*
X61646Y112960D01*
X61499Y112676D01*
X61366Y112382D01*
X61249Y112078D01*
X61146Y111764D01*
X61059Y111441D01*
X58553Y115652D01*
X58857Y115587D01*
X59155Y115555D01*
X59447Y115557D01*
X59733Y115591D01*
X60013Y115658D01*
X60288Y115758D01*
X60556Y115891D01*
X60819Y116057D01*
X61076Y116256D01*
X61327Y116488D01*
X62610Y114234D01*
D02*
G37*
G36*
X70177Y115304D02*
X70167Y115290D01*
X70094Y115278D01*
X69957Y115267D01*
X68776Y115238D01*
X67224Y115232D01*
X67274Y117732D01*
X67710Y117736D01*
X69131Y117839D01*
X69405Y117886D01*
X69647Y117942D01*
X69856Y118006D01*
X70033Y118078D01*
X70177Y118160D01*
Y115304D01*
D02*
G37*
G36*
X177811Y119360D02*
X178121Y117799D01*
X178890Y116649D01*
Y114150D01*
X179036Y114179D01*
X180855Y115395D01*
X180910Y115477D01*
X181890Y115282D01*
X182085Y115320D01*
X183067Y114515D01*
Y76975D01*
X181610D01*
X180147Y76684D01*
X178906Y75856D01*
X174842Y71792D01*
X174014Y70551D01*
X173723Y69088D01*
Y63518D01*
X173130Y63306D01*
X172933Y63403D01*
X171935Y64178D01*
X171571Y66006D01*
X170355Y67825D01*
X170273Y67880D01*
X170468Y68860D01*
X170158Y70421D01*
X169530Y71360D01*
X170158Y72299D01*
X170468Y73860D01*
X170158Y75421D01*
X169530Y76360D01*
X170158Y77299D01*
X170468Y78860D01*
X170158Y80421D01*
X169530Y81360D01*
X170158Y82299D01*
X170468Y83860D01*
X170158Y85421D01*
X169530Y86360D01*
X170158Y87299D01*
X170468Y88860D01*
X170158Y90421D01*
X169530Y91360D01*
X170158Y92299D01*
X170468Y93860D01*
X170158Y95421D01*
X169530Y96360D01*
X170158Y97299D01*
X170468Y98860D01*
X170158Y100421D01*
X169530Y101360D01*
X170158Y102299D01*
X170468Y103860D01*
X170158Y105421D01*
X169530Y106360D01*
X170158Y107299D01*
X170468Y108860D01*
X170158Y110421D01*
X169530Y111360D01*
X170158Y112299D01*
X170468Y113860D01*
X170383Y114286D01*
X171464Y115366D01*
X171890Y115282D01*
X172870Y115477D01*
X172925Y115395D01*
X174744Y114179D01*
X174890Y114150D01*
Y116649D01*
X175658Y117799D01*
X175969Y119360D01*
Y126860D01*
X177811D01*
Y119360D01*
D02*
G37*
G36*
X197811D02*
X198122Y117799D01*
X198890Y116649D01*
Y114150D01*
X199036Y114179D01*
X200855Y115395D01*
X200910Y115477D01*
X201890Y115282D01*
X203451Y115592D01*
X204390Y116220D01*
X205329Y115592D01*
X206890Y115282D01*
X208451Y115592D01*
X209390Y116220D01*
X210329Y115592D01*
X211890Y115282D01*
X213451Y115592D01*
X214390Y116220D01*
X215329Y115592D01*
X216890Y115282D01*
X218451Y115592D01*
X219390Y116220D01*
X220329Y115592D01*
X221890Y115282D01*
X223451Y115592D01*
X224390Y116220D01*
X225329Y115592D01*
X226890Y115282D01*
X227316Y115366D01*
X228396Y114286D01*
X228312Y113860D01*
X228622Y112299D01*
X229250Y111360D01*
X228622Y110421D01*
X228312Y108860D01*
X228622Y107299D01*
X229250Y106360D01*
X228622Y105421D01*
X228312Y103860D01*
X228622Y102299D01*
X229250Y101360D01*
X228622Y100421D01*
X228312Y98860D01*
X228622Y97299D01*
X229250Y96360D01*
X228622Y95421D01*
X228312Y93860D01*
X228622Y92299D01*
X229250Y91360D01*
X228622Y90421D01*
X228312Y88860D01*
X228622Y87299D01*
X229250Y86360D01*
X228622Y85421D01*
X228312Y83860D01*
X228622Y82299D01*
X229250Y81360D01*
X228622Y80421D01*
X228312Y78860D01*
X228622Y77299D01*
X229250Y76360D01*
X228622Y75421D01*
X228312Y73860D01*
X228519Y72816D01*
X227349Y72190D01*
X223684Y75856D01*
X222443Y76684D01*
X220980Y76975D01*
X190713D01*
Y114515D01*
X191695Y115320D01*
X191890Y115282D01*
X192870Y115477D01*
X192925Y115395D01*
X194744Y114179D01*
X194890Y114150D01*
Y116649D01*
X195658Y117799D01*
X195969Y119360D01*
Y126860D01*
X197811D01*
Y119360D01*
D02*
G37*
G36*
X422800Y110958D02*
X422773Y111112D01*
X422691Y111251D01*
X422554Y111373D01*
X422362Y111478D01*
X422116Y111568D01*
X421815Y111641D01*
X421459Y111698D01*
X421048Y111739D01*
X420062Y111771D01*
Y114771D01*
X420587Y114784D01*
X421057Y114821D01*
X421471Y114883D01*
X421831Y114969D01*
X422135Y115081D01*
X422384Y115217D01*
X422579Y115378D01*
X422718Y115564D01*
X422802Y115774D01*
X422831Y116010D01*
X422800Y110958D01*
D02*
G37*
G36*
X404885Y114455D02*
X405016Y114205D01*
X405234Y113983D01*
X405539Y113791D01*
X405932Y113629D01*
X406412Y113496D01*
X406979Y113393D01*
X407633Y113319D01*
X408375Y113275D01*
X409204Y113260D01*
Y110260D01*
X408375Y110245D01*
X406979Y110127D01*
X406412Y110024D01*
X405932Y109891D01*
X405539Y109729D01*
X405234Y109537D01*
X405016Y109316D01*
X404885Y109065D01*
X404841Y108784D01*
Y114736D01*
X404885Y114455D01*
D02*
G37*
G36*
X334320Y108729D02*
X334143Y108830D01*
X333888Y108920D01*
X333555Y109000D01*
X333144Y109069D01*
X332088Y109175D01*
X330721Y109239D01*
X329043Y109260D01*
Y114260D01*
X329921Y114265D01*
X333555Y114520D01*
X333888Y114600D01*
X334143Y114690D01*
X334320Y114791D01*
Y108729D01*
D02*
G37*
G36*
X497300Y107410D02*
X497251Y107501D01*
X497100Y107582D01*
X496851Y107654D01*
X496501Y107716D01*
X496050Y107769D01*
X494851Y107845D01*
X492300Y107888D01*
Y112888D01*
X493255Y112913D01*
X494108Y112988D01*
X494862Y113113D01*
X495515Y113288D01*
X496069Y113513D01*
X496521Y113788D01*
X496874Y114113D01*
X497127Y114488D01*
X497279Y114913D01*
X497331Y115388D01*
X497300Y107410D01*
D02*
G37*
G36*
X465512Y110942D02*
X465147Y110801D01*
X464824Y110567D01*
X464544Y110239D01*
X464308Y109818D01*
X464114Y109303D01*
X463964Y108694D01*
X463856Y107992D01*
X463792Y107196D01*
X463770Y106307D01*
X458770D01*
X458749Y107196D01*
X458684Y107992D01*
X458576Y108694D01*
X458426Y109303D01*
X458232Y109818D01*
X457996Y110239D01*
X457716Y110567D01*
X457393Y110801D01*
X457028Y110942D01*
X456619Y110988D01*
X465921D01*
X465512Y110942D01*
D02*
G37*
G36*
X87323Y108101D02*
X87451Y108065D01*
X87621Y108034D01*
X87834Y108006D01*
X88730Y107949D01*
X90012Y107930D01*
X89954Y105430D01*
X87239Y105286D01*
Y108141D01*
X87323Y108101D01*
D02*
G37*
G36*
X328559Y112171D02*
X328505Y111760D01*
X328763Y109802D01*
X329519Y107978D01*
X330721Y106411D01*
X332193Y105281D01*
X332220Y104874D01*
X332030Y103941D01*
X331911Y103913D01*
X331544Y103860D01*
X330262Y103775D01*
X328936D01*
X326985Y103387D01*
X325331Y102282D01*
X324863Y101814D01*
X323690Y102300D01*
Y106606D01*
X315690D01*
Y102833D01*
X315983Y103000D01*
X316796Y103566D01*
X317680Y104273D01*
X319660Y106111D01*
X323195Y102576D01*
X322205Y101550D01*
X320649Y99712D01*
X320084Y98899D01*
X319660Y98156D01*
X319377Y97484D01*
X319235Y96883D01*
Y96353D01*
X319377Y95893D01*
X319660Y95505D01*
X315690Y99474D01*
Y96606D01*
Y86606D01*
X321292D01*
Y84106D01*
X307813D01*
X307721Y84124D01*
X307628Y84106D01*
X305190D01*
Y82163D01*
X305109Y82128D01*
X304608Y81983D01*
X303940Y81856D01*
X302436Y81723D01*
X301628D01*
X301437Y81729D01*
X300537Y81813D01*
X299793Y81925D01*
X299330Y82031D01*
Y83590D01*
X296893D01*
X296800Y83609D01*
X296707Y83590D01*
X282330D01*
Y58760D01*
X279413D01*
X279387Y58823D01*
X279285Y59203D01*
X279197Y59739D01*
X279164Y60112D01*
Y110218D01*
X280830D01*
Y101090D01*
X290830D01*
Y99090D01*
D01*
Y101090D01*
X296800D01*
Y104848D01*
X296870Y104183D01*
X297080Y103588D01*
X297430Y103063D01*
X297920Y102608D01*
X298549Y102223D01*
X299319Y101908D01*
X300229Y101663D01*
X300830Y101563D01*
Y110218D01*
X322699D01*
X324650Y110606D01*
X326304Y111711D01*
X327356Y112764D01*
X328559Y112171D01*
D02*
G37*
G36*
X70177Y100277D02*
X70102Y100311D01*
X69982Y100341D01*
X69818Y100367D01*
X69357Y100410D01*
X68332Y100448D01*
X67427Y100455D01*
Y102955D01*
X67902Y102956D01*
X70102Y103099D01*
X70177Y103132D01*
Y100277D01*
D02*
G37*
G36*
X404885Y101755D02*
X405016Y101504D01*
X405234Y101283D01*
X405539Y101091D01*
X405932Y100929D01*
X406412Y100796D01*
X406979Y100693D01*
X407633Y100619D01*
X408375Y100575D01*
X409204Y100560D01*
Y97560D01*
X408375Y97545D01*
X406979Y97427D01*
X406412Y97324D01*
X405932Y97191D01*
X405539Y97029D01*
X405234Y96837D01*
X405016Y96615D01*
X404885Y96365D01*
X404841Y96084D01*
Y102036D01*
X404885Y101755D01*
D02*
G37*
G36*
X354001Y101990D02*
X354269Y101900D01*
X354622Y101820D01*
X355062Y101751D01*
X356201Y101645D01*
X358554Y101565D01*
X359511Y101560D01*
Y96560D01*
X358554Y96555D01*
X354622Y96300D01*
X354269Y96220D01*
X354001Y96130D01*
X353820Y96029D01*
Y102091D01*
X354001Y101990D01*
D02*
G37*
G36*
X334320Y96029D02*
X334234Y96058D01*
X334051Y96083D01*
X333772Y96105D01*
X330935Y96171D01*
X329128Y96177D01*
X328936Y101177D01*
X329745Y101187D01*
X331811Y101323D01*
X332379Y101406D01*
X333336Y101625D01*
X333724Y101762D01*
X334052Y101917D01*
X334320Y102091D01*
Y96029D01*
D02*
G37*
G36*
X96184Y99843D02*
X96259Y99418D01*
X96384Y99043D01*
X96559Y98718D01*
X96784Y98443D01*
X97059Y98218D01*
X97384Y98043D01*
X97759Y97918D01*
X98184Y97843D01*
X98659Y97818D01*
X94909Y95318D01*
X91159Y97818D01*
X91634Y97843D01*
X92059Y97918D01*
X92434Y98043D01*
X92759Y98218D01*
X93034Y98443D01*
X93259Y98718D01*
X93434Y99043D01*
X93559Y99418D01*
X93634Y99843D01*
X93659Y100318D01*
X96159D01*
X96184Y99843D01*
D02*
G37*
G36*
X87349Y98065D02*
X87498Y98013D01*
X87686Y97967D01*
X87912Y97928D01*
X88479Y97867D01*
X89200Y97830D01*
X90075Y97818D01*
X89814Y95318D01*
X87239Y95268D01*
Y98123D01*
X87349Y98065D01*
D02*
G37*
G36*
X129354Y97868D02*
X129430Y97830D01*
X129555Y97797D01*
X129729Y97769D01*
X129955Y97745D01*
X130929Y97699D01*
X131830Y97690D01*
Y95190D01*
X131355Y95188D01*
X129555Y95082D01*
X129430Y95049D01*
X129354Y95012D01*
X129330Y94971D01*
Y97909D01*
X129354Y97868D01*
D02*
G37*
G36*
X106890Y94971D02*
X106866Y95036D01*
X106791Y95096D01*
X106665Y95148D01*
X106490Y95193D01*
X106265Y95231D01*
X105990Y95262D01*
X105290Y95304D01*
X104390Y95318D01*
Y97818D01*
X106890Y97909D01*
Y94971D01*
D02*
G37*
G36*
X436271Y98914D02*
X436346Y98059D01*
X436471Y97304D01*
X436646Y96650D01*
X436871Y96097D01*
X437146Y95644D01*
X437471Y95292D01*
X437846Y95040D01*
X438271Y94889D01*
X438746Y94839D01*
X428746D01*
X429221Y94889D01*
X429646Y95040D01*
X430021Y95292D01*
X430346Y95644D01*
X430621Y96097D01*
X430846Y96650D01*
X431021Y97304D01*
X431146Y98059D01*
X431221Y98914D01*
X431246Y99869D01*
X436246D01*
X436271Y98914D01*
D02*
G37*
G36*
X248054Y95201D02*
X248187Y95162D01*
X248364Y95127D01*
X248584Y95097D01*
X249152Y95051D01*
X250807Y95014D01*
X250521Y92514D01*
X247963Y92476D01*
Y95244D01*
X248054Y95201D01*
D02*
G37*
G36*
X87348Y93057D02*
X87496Y93006D01*
X87683Y92961D01*
X87908Y92921D01*
X88475Y92861D01*
X89196Y92825D01*
X90071Y92813D01*
X89820Y90313D01*
X87239Y90259D01*
Y93114D01*
X87348Y93057D01*
D02*
G37*
G36*
X70177Y90259D02*
X70166Y90246D01*
X70092Y90234D01*
X69955Y90224D01*
X68320Y90193D01*
X67224Y90190D01*
X67275Y92690D01*
X67712Y92694D01*
X69134Y92796D01*
X69408Y92843D01*
X69650Y92898D01*
X69858Y92961D01*
X70034Y93034D01*
X70177Y93114D01*
Y90259D01*
D02*
G37*
G36*
X129354Y92868D02*
X129430Y92830D01*
X129555Y92798D01*
X129729Y92769D01*
X129955Y92745D01*
X130929Y92699D01*
X131830Y92690D01*
Y90190D01*
X131355Y90188D01*
X129555Y90082D01*
X129430Y90049D01*
X129354Y90012D01*
X129330Y89971D01*
Y92909D01*
X129354Y92868D01*
D02*
G37*
G36*
X106890Y89971D02*
X106866Y90036D01*
X106791Y90094D01*
X106665Y90145D01*
X106490Y90190D01*
X106265Y90227D01*
X105990Y90258D01*
X105290Y90300D01*
X104390Y90313D01*
Y92813D01*
X106890Y92909D01*
Y89971D01*
D02*
G37*
G36*
X248027Y90219D02*
X248136Y90196D01*
X248291Y90176D01*
X248739Y90144D01*
X250664Y90110D01*
Y87610D01*
X247963Y87476D01*
Y90244D01*
X248027Y90219D01*
D02*
G37*
G36*
X70177Y85250D02*
X70076Y85301D01*
X69934Y85348D01*
X69752Y85389D01*
X69531Y85424D01*
X68968Y85479D01*
X67824Y85520D01*
X67363Y85523D01*
X67554Y88023D01*
X70177Y88105D01*
Y85250D01*
D02*
G37*
G36*
X55885Y89016D02*
X56129Y88807D01*
X56385Y88624D01*
X56652Y88464D01*
X56930Y88329D01*
X57220Y88219D01*
X57520Y88133D01*
X57832Y88072D01*
X58156Y88035D01*
X58490Y88023D01*
X58417Y85523D01*
X58085Y85511D01*
X57762Y85476D01*
X57448Y85417D01*
X57144Y85335D01*
X56849Y85230D01*
X56564Y85101D01*
X56288Y84948D01*
X56022Y84773D01*
X55765Y84573D01*
X55518Y84351D01*
X55651Y89249D01*
X55885Y89016D01*
D02*
G37*
G36*
X385320Y83329D02*
X385139Y83430D01*
X384871Y83520D01*
X384518Y83600D01*
X384078Y83669D01*
X382939Y83775D01*
X380586Y83855D01*
X379629Y83860D01*
Y88860D01*
X380586Y88865D01*
X384518Y89120D01*
X384871Y89200D01*
X385139Y89290D01*
X385320Y89391D01*
Y83329D01*
D02*
G37*
G36*
X264406Y85046D02*
X264442Y84722D01*
X264502Y84410D01*
X264586Y84107D01*
X264694Y83815D01*
X264826Y83533D01*
X264982Y83262D01*
X265162Y83001D01*
X265366Y82750D01*
X265594Y82509D01*
X260694D01*
X260922Y82750D01*
X261126Y83001D01*
X261306Y83262D01*
X261462Y83533D01*
X261594Y83815D01*
X261702Y84107D01*
X261786Y84410D01*
X261846Y84722D01*
X261882Y85046D01*
X261894Y85379D01*
X264394D01*
X264406Y85046D01*
D02*
G37*
G36*
X487043Y85735D02*
X487141Y85008D01*
X487305Y84291D01*
X487534Y83584D01*
X487829Y82887D01*
X488189Y82200D01*
X488615Y81523D01*
X489106Y80856D01*
X489663Y80199D01*
X490285Y79552D01*
X478735D01*
X479357Y80199D01*
X479914Y80856D01*
X480405Y81523D01*
X480831Y82200D01*
X481191Y82887D01*
X481486Y83584D01*
X481715Y84291D01*
X481879Y85008D01*
X481977Y85735D01*
X482010Y86472D01*
X487010D01*
X487043Y85735D01*
D02*
G37*
G36*
X307721Y69637D02*
X307651Y70106D01*
X307440Y70525D01*
X307090Y70896D01*
X306600Y71217D01*
X305970Y71489D01*
X305201Y71711D01*
X304291Y71884D01*
X303241Y72007D01*
X302365Y72062D01*
X301280Y71966D01*
X300229Y71791D01*
X299319Y71546D01*
X298549Y71231D01*
X297920Y70846D01*
X297430Y70391D01*
X297080Y69866D01*
X296870Y69271D01*
X296800Y68606D01*
Y81060D01*
X296870Y80688D01*
X297080Y80356D01*
X297430Y80063D01*
X297920Y79809D01*
X298549Y79594D01*
X299319Y79419D01*
X300229Y79282D01*
X301280Y79184D01*
X302298Y79152D01*
X304291Y79328D01*
X305201Y79501D01*
X305970Y79723D01*
X306600Y79995D01*
X307090Y80316D01*
X307440Y80687D01*
X307651Y81106D01*
X307721Y81575D01*
Y69637D01*
D02*
G37*
G36*
X345106Y82891D02*
X344631Y82847D01*
X344206Y82701D01*
X343831Y82453D01*
X343506Y82103D01*
X343231Y81651D01*
X343006Y81097D01*
X342831Y80441D01*
X342706Y79683D01*
X342631Y78823D01*
X342606Y77861D01*
X337606D01*
X337581Y78837D01*
X337506Y79711D01*
X337382Y80483D01*
X337208Y81153D01*
X336984Y81722D01*
X336710Y82188D01*
X336387Y82552D01*
X336013Y82814D01*
X335591Y82974D01*
X335118Y83032D01*
X345106Y82891D01*
D02*
G37*
G36*
X438271Y82911D02*
X437846Y82760D01*
X437471Y82508D01*
X437146Y82156D01*
X436871Y81703D01*
X436646Y81150D01*
X436471Y80496D01*
X436346Y79742D01*
X436271Y78886D01*
X436259Y78422D01*
X436261Y78289D01*
X436380Y76690D01*
X436485Y76040D01*
X436619Y75490D01*
X436784Y75040D01*
X436978Y74689D01*
X437202Y74440D01*
X437456Y74289D01*
X437739Y74240D01*
X428746Y74209D01*
X429221Y74261D01*
X429646Y74413D01*
X430021Y74665D01*
X430346Y75018D01*
X430621Y75471D01*
X430846Y76024D01*
X431021Y76677D01*
X431146Y77431D01*
X431221Y78285D01*
X431229Y78586D01*
X431221Y78886D01*
X431146Y79742D01*
X431021Y80496D01*
X430846Y81150D01*
X430621Y81703D01*
X430346Y82156D01*
X430021Y82508D01*
X429646Y82760D01*
X429221Y82911D01*
X428746Y82961D01*
X438746D01*
X438271Y82911D01*
D02*
G37*
G36*
X150817Y72476D02*
X150753Y72501D01*
X150644Y72524D01*
X150489Y72544D01*
X150041Y72576D01*
X148116Y72610D01*
Y75110D01*
X150817Y75244D01*
Y72476D01*
D02*
G37*
G36*
X188165Y76427D02*
X188240Y76002D01*
X188365Y75627D01*
X188540Y75302D01*
X188765Y75027D01*
X189040Y74802D01*
X189365Y74627D01*
X189740Y74502D01*
X190165Y74427D01*
X190640Y74402D01*
X186890Y71902D01*
X183140Y74402D01*
X183615Y74427D01*
X184040Y74502D01*
X184415Y74627D01*
X184740Y74802D01*
X185015Y75027D01*
X185240Y75302D01*
X185415Y75627D01*
X185540Y76002D01*
X185615Y76427D01*
X185640Y76902D01*
X188140D01*
X188165Y76427D01*
D02*
G37*
G36*
X102860Y80940D02*
X109110D01*
Y84837D01*
X109060Y84871D01*
X108848Y84945D01*
X108610Y84971D01*
X109110D01*
Y86440D01*
X113110D01*
Y84971D01*
X113610D01*
X113372Y84945D01*
X113160Y84871D01*
X113110Y84837D01*
Y80940D01*
X119360D01*
Y82440D01*
X131567D01*
Y75508D01*
X131858Y74044D01*
X132686Y72804D01*
X133030Y72460D01*
X133186Y72226D01*
X139256Y66156D01*
X140497Y65328D01*
X141960Y65037D01*
X145015D01*
X145821Y64055D01*
X145782Y63860D01*
X145821Y63665D01*
X145015Y62683D01*
X99500D01*
X98037Y62392D01*
X96796Y61564D01*
X89244Y54012D01*
X88416Y52771D01*
X88125Y51308D01*
Y45720D01*
Y28535D01*
X70525D01*
Y9565D01*
X89495D01*
Y14465D01*
X90484D01*
X91947Y14756D01*
X93187Y15584D01*
X94652Y17049D01*
X95480Y18289D01*
X95771Y19753D01*
Y44189D01*
X96025Y45466D01*
X95771Y46743D01*
Y49724D01*
X101084Y55037D01*
X149497D01*
X149927Y55029D01*
X150225Y55008D01*
X150232Y55006D01*
X150240Y55006D01*
X150301Y54998D01*
X151390Y54782D01*
X166390D01*
X166816Y54866D01*
X167462Y54405D01*
X167879Y53698D01*
X167812Y53360D01*
Y38360D01*
X167823Y38303D01*
X166930Y37033D01*
X142430D01*
X140967Y36742D01*
X139726Y35914D01*
X134456Y30644D01*
X133628Y29403D01*
X133337Y27940D01*
Y27556D01*
X133328Y27476D01*
X133304Y27363D01*
X133107Y27310D01*
X130713Y25928D01*
X128758Y23973D01*
X127376Y21579D01*
X126660Y18908D01*
Y16144D01*
X127376Y13473D01*
X128758Y11079D01*
X130713Y9124D01*
X133107Y7742D01*
X135778Y7026D01*
X138542D01*
X141213Y7742D01*
X143607Y9124D01*
X145562Y11079D01*
X146944Y13473D01*
X147660Y16144D01*
Y18908D01*
X146944Y21579D01*
X145562Y23973D01*
X143607Y25928D01*
X142576Y26524D01*
X142410Y27783D01*
X144014Y29387D01*
X158534D01*
X159408Y28136D01*
X159215Y27500D01*
X158507Y27310D01*
X156113Y25928D01*
X154158Y23973D01*
X152776Y21579D01*
X152060Y18908D01*
Y16144D01*
X152776Y13473D01*
X154158Y11079D01*
X156113Y9124D01*
X158507Y7742D01*
X161178Y7026D01*
X163942D01*
X166613Y7742D01*
X169007Y9124D01*
X170962Y11079D01*
X172344Y13473D01*
X173060Y16144D01*
Y18908D01*
X172344Y21579D01*
X171168Y23617D01*
X171699Y24887D01*
X172234D01*
X173697Y25178D01*
X174690Y25841D01*
X175960Y25425D01*
Y19526D01*
X187960D01*
Y17526D01*
X189960D01*
Y5526D01*
X199960D01*
Y17530D01*
X201230Y17655D01*
X201446Y16571D01*
X202274Y15330D01*
X212180Y5424D01*
X213057Y4839D01*
X212672Y3569D01*
X50868D01*
Y7470D01*
X51265Y7507D01*
X52276D01*
X54227Y7895D01*
X55881Y9000D01*
X56665Y9784D01*
X56771Y9872D01*
X56911Y9975D01*
X58441Y9565D01*
X60939D01*
X63351Y10211D01*
X65514Y11460D01*
X67280Y13226D01*
X68529Y15389D01*
X69175Y17801D01*
Y20299D01*
X68529Y22711D01*
X67280Y24874D01*
X65514Y26640D01*
X63351Y27889D01*
X60939Y28535D01*
X58441D01*
X56029Y27889D01*
X53866Y26640D01*
X52100Y24874D01*
X50851Y22711D01*
X50205Y20299D01*
Y18406D01*
X48431D01*
X48337Y18425D01*
X48245Y18406D01*
X33868D01*
Y3569D01*
X31368D01*
Y7906D01*
X21368D01*
X11368D01*
Y3569D01*
X3569D01*
Y62867D01*
X4839Y63676D01*
X5429Y63431D01*
X6405Y63237D01*
X7112Y63237D01*
X7112Y63237D01*
X19858D01*
X20110Y61967D01*
X18680Y61375D01*
X17218Y60252D01*
X16095Y58790D01*
X15390Y57087D01*
X15150Y55260D01*
Y50260D01*
X29210D01*
X43270D01*
Y55260D01*
X43030Y57087D01*
X42325Y58790D01*
X41203Y60252D01*
X39740Y61375D01*
X38310Y61967D01*
X38562Y63237D01*
X53845D01*
X54821Y63431D01*
X55754Y63818D01*
X56581Y64370D01*
X57295Y65085D01*
X57296Y65085D01*
X57296Y65086D01*
X58915Y65262D01*
X59019Y65159D01*
X60501Y64303D01*
X62154Y63860D01*
X63866D01*
X64595Y64055D01*
X65073Y63825D01*
X65150Y63590D01*
X64231Y62320D01*
X61210D01*
X59383Y62080D01*
X57680Y61375D01*
X56217Y60252D01*
X55096Y58790D01*
X54390Y57087D01*
X54150Y55260D01*
Y50260D01*
X68210D01*
X82270D01*
Y55260D01*
X82030Y57087D01*
X81390Y58632D01*
X81868Y59893D01*
X81873Y59902D01*
X86208D01*
X88354Y60329D01*
X90173Y61545D01*
X91389Y63364D01*
X91716Y65010D01*
X87430D01*
X87399Y64971D01*
X87311Y64761D01*
X87282Y64527D01*
Y65010D01*
X78708D01*
Y69010D01*
X87282D01*
Y69493D01*
X87311Y69259D01*
X87399Y69049D01*
X87430Y69010D01*
X91716D01*
X91389Y70656D01*
X90173Y72475D01*
X90091Y72530D01*
X90286Y73510D01*
Y76510D01*
X89976Y78071D01*
X89470Y78828D01*
X90019Y79650D01*
X90272Y80918D01*
Y82418D01*
X90019Y83686D01*
X89694Y84173D01*
X90019Y84659D01*
X90272Y85927D01*
Y87427D01*
X90528Y87740D01*
X102860D01*
Y80940D01*
D02*
G37*
G36*
X150817Y67476D02*
X150753Y67501D01*
X150644Y67524D01*
X150489Y67544D01*
X150041Y67576D01*
X148116Y67610D01*
Y70110D01*
X150817Y70244D01*
Y67476D01*
D02*
G37*
G36*
X546464Y3569D02*
X485267D01*
X484781Y4742D01*
X486054Y6015D01*
X487159Y7669D01*
X487547Y9620D01*
Y10326D01*
X487596Y10649D01*
X487707Y11067D01*
X487857Y11452D01*
X488050Y11813D01*
X488290Y12162D01*
X488588Y12504D01*
X488951Y12842D01*
X489389Y13176D01*
X489992Y13558D01*
X490137Y13696D01*
X491111Y14258D01*
X493112Y16259D01*
X494527Y18711D01*
X495260Y21445D01*
Y22673D01*
X495308Y22893D01*
X495324Y23710D01*
X495381Y24402D01*
X495478Y25042D01*
X495613Y25633D01*
X495783Y26178D01*
X495986Y26679D01*
X496222Y27141D01*
X496492Y27571D01*
X496689Y27830D01*
X497821Y28962D01*
X498838Y28182D01*
X498495Y27588D01*
X497764Y24860D01*
X507910D01*
Y35006D01*
X505182Y34275D01*
X504588Y33932D01*
X503808Y34949D01*
X504940Y36081D01*
X505200Y36278D01*
X505629Y36548D01*
X506091Y36784D01*
X506592Y36987D01*
X507137Y37157D01*
X507728Y37292D01*
X508368Y37389D01*
X509060Y37446D01*
X509877Y37462D01*
X510097Y37510D01*
X511325D01*
X514059Y38243D01*
X516511Y39658D01*
X518512Y41659D01*
X519927Y44111D01*
X520660Y46845D01*
Y49675D01*
X519927Y52409D01*
X518512Y54861D01*
X516511Y56862D01*
X514059Y58277D01*
X511325Y59010D01*
X508495D01*
X505761Y58277D01*
X503309Y56862D01*
X501308Y54861D01*
X499893Y52409D01*
X499160Y49675D01*
Y48446D01*
X499112Y48227D01*
X499096Y47410D01*
X499039Y46718D01*
X498942Y46078D01*
X498807Y45487D01*
X498637Y44942D01*
X498434Y44441D01*
X498198Y43979D01*
X497928Y43549D01*
X497730Y43290D01*
X489480Y35040D01*
X489221Y34842D01*
X488791Y34572D01*
X488329Y34336D01*
X487828Y34133D01*
X487283Y33963D01*
X486692Y33828D01*
X486051Y33731D01*
X485360Y33674D01*
X484543Y33658D01*
X484324Y33610D01*
X483095D01*
X480361Y32877D01*
X477909Y31462D01*
X475908Y29461D01*
X474493Y27009D01*
X473760Y24275D01*
Y21445D01*
X474493Y18711D01*
X475161Y17553D01*
X475240Y17322D01*
X475690Y16543D01*
X476053Y15854D01*
X476682Y14444D01*
X476902Y13833D01*
X477086Y13221D01*
X477125Y13059D01*
X476607Y12163D01*
X476134Y11802D01*
X476077Y11789D01*
X418425D01*
Y26707D01*
X437502D01*
X437545Y26663D01*
X439751Y25750D01*
X442137D01*
X444343Y26663D01*
X446031Y28351D01*
X446944Y30556D01*
Y32943D01*
X446031Y35149D01*
X444343Y36837D01*
X443341Y37251D01*
X443043Y38749D01*
X448475Y44182D01*
X471734D01*
X472038Y44120D01*
X472435Y43991D01*
X472900Y43786D01*
X473428Y43499D01*
X474011Y43122D01*
X474620Y42673D01*
X476062Y41423D01*
X476831Y40668D01*
X477030Y40537D01*
X477909Y39658D01*
X480361Y38243D01*
X483095Y37510D01*
X485925D01*
X488659Y38243D01*
X491111Y39658D01*
X493112Y41659D01*
X494527Y44111D01*
X495260Y46845D01*
Y49675D01*
X494527Y52409D01*
X493112Y54861D01*
X491111Y56862D01*
X488659Y58277D01*
X485925Y59010D01*
X483095D01*
X480361Y58277D01*
X477909Y56862D01*
X477048Y56001D01*
X476867Y55887D01*
X475302Y54408D01*
X474645Y53865D01*
X474011Y53398D01*
X473428Y53021D01*
X472900Y52734D01*
X472441Y52532D01*
X472412Y52544D01*
X471488Y53145D01*
X471270Y53440D01*
Y60431D01*
X471357Y60466D01*
X471731Y60567D01*
X472262Y60655D01*
X472630Y60688D01*
X478536D01*
X480487Y61076D01*
X482141Y62181D01*
X482917Y62958D01*
X483095Y62910D01*
X485925D01*
X488659Y63643D01*
X491111Y65058D01*
X493112Y67059D01*
X493257Y67310D01*
X499160D01*
Y62910D01*
X520660D01*
Y67310D01*
X546464D01*
Y3569D01*
D02*
G37*
G36*
X150817Y62476D02*
X150781Y62483D01*
X150696Y62490D01*
X149868Y62508D01*
X148259Y62514D01*
X147973Y65014D01*
X148451Y65017D01*
X150593Y65161D01*
X150726Y65201D01*
X150817Y65244D01*
Y62476D01*
D02*
G37*
G36*
X260390Y61558D02*
X260150Y61786D01*
X259899Y61990D01*
X259638Y62170D01*
X259367Y62326D01*
X259085Y62458D01*
X258793Y62566D01*
X258490Y62650D01*
X258178Y62710D01*
X257854Y62746D01*
X257521Y62758D01*
Y65258D01*
X257854Y65270D01*
X258178Y65306D01*
X258490Y65366D01*
X258793Y65450D01*
X259085Y65558D01*
X259367Y65690D01*
X259638Y65846D01*
X259899Y66026D01*
X260150Y66230D01*
X260390Y66458D01*
Y61558D01*
D02*
G37*
G36*
X468789Y70311D02*
X468940Y69886D01*
X469189Y69511D01*
X469539Y69186D01*
X469990Y68911D01*
X470540Y68686D01*
X471189Y68511D01*
X471940Y68386D01*
X472789Y68311D01*
X473740Y68286D01*
Y63286D01*
X472789Y63261D01*
X471940Y63186D01*
X471189Y63061D01*
X470540Y62886D01*
X469990Y62661D01*
X469539Y62386D01*
X469189Y62061D01*
X468940Y61686D01*
X468789Y61261D01*
X468740Y60786D01*
Y70786D01*
X468789Y70311D01*
D02*
G37*
G36*
X223067Y65658D02*
Y59735D01*
X222085Y58929D01*
X221890Y58968D01*
X219744Y58541D01*
X217925Y57325D01*
X217870Y57243D01*
X216890Y57438D01*
X215329Y57128D01*
X214390Y56500D01*
X213451Y57128D01*
X211890Y57438D01*
X210329Y57128D01*
X209390Y56500D01*
X208451Y57128D01*
X206890Y57438D01*
X205329Y57128D01*
X204390Y56500D01*
X203451Y57128D01*
X201890Y57438D01*
X200329Y57128D01*
X199390Y56500D01*
X198451Y57128D01*
X196890Y57438D01*
X195329Y57128D01*
X194390Y56500D01*
X193451Y57128D01*
X191890Y57438D01*
X190329Y57128D01*
X189390Y56500D01*
X188451Y57128D01*
X186890Y57438D01*
X185329Y57128D01*
X184390Y56500D01*
X183451Y57128D01*
X181890Y57438D01*
X181619Y57384D01*
X180855Y58527D01*
X181078Y58861D01*
X181369Y60325D01*
Y67504D01*
X183194Y69329D01*
X219396D01*
X223067Y65658D01*
D02*
G37*
G36*
X231817Y57476D02*
X231754Y57501D01*
X231644Y57524D01*
X231489Y57544D01*
X231041Y57576D01*
X229116Y57610D01*
Y60110D01*
X231817Y60244D01*
Y57476D01*
D02*
G37*
G36*
X167027Y60219D02*
X167136Y60196D01*
X167291Y60176D01*
X167739Y60144D01*
X169664Y60110D01*
Y57610D01*
X166963Y57476D01*
Y60244D01*
X167027Y60219D01*
D02*
G37*
G36*
X150817Y57476D02*
X150753Y57501D01*
X150644Y57524D01*
X150489Y57544D01*
X150041Y57576D01*
X148116Y57610D01*
Y60110D01*
X150817Y60244D01*
Y57476D01*
D02*
G37*
G36*
X276591Y60274D02*
X276666Y59419D01*
X276791Y58664D01*
X276966Y58010D01*
X277191Y57457D01*
X277466Y57004D01*
X277791Y56652D01*
X278166Y56400D01*
X278591Y56249D01*
X279066Y56199D01*
X269066D01*
X269541Y56249D01*
X269966Y56400D01*
X270341Y56652D01*
X270666Y57004D01*
X270941Y57457D01*
X271166Y58010D01*
X271341Y58664D01*
X271466Y59419D01*
X271541Y60274D01*
X271566Y61230D01*
X276566D01*
X276591Y60274D01*
D02*
G37*
G36*
X228274Y53933D02*
X225506D01*
X225531Y53997D01*
X225554Y54106D01*
X225574Y54261D01*
X225606Y54709D01*
X225640Y56634D01*
X228140D01*
X228274Y53933D01*
D02*
G37*
G36*
X222894Y56083D02*
X222986Y54852D01*
X223028Y54613D01*
X223078Y54402D01*
X223136Y54218D01*
X223201Y54062D01*
X223274Y53933D01*
X220506D01*
X220579Y54062D01*
X220644Y54218D01*
X220702Y54402D01*
X220752Y54613D01*
X220794Y54852D01*
X220855Y55413D01*
X220886Y56083D01*
X220890Y56459D01*
X222890D01*
X222894Y56083D01*
D02*
G37*
G36*
X300375Y54785D02*
X300526Y54360D01*
X300778Y53985D01*
X301130Y53660D01*
X301583Y53385D01*
X302136Y53160D01*
X302790Y52985D01*
X303545Y52860D01*
X304400Y52785D01*
X305355Y52760D01*
Y47760D01*
X304400Y47735D01*
X303545Y47660D01*
X302790Y47535D01*
X302136Y47360D01*
X301583Y47135D01*
X301130Y46860D01*
X300778Y46535D01*
X300526Y46160D01*
X300375Y45735D01*
X300325Y45260D01*
Y55260D01*
X300375Y54785D01*
D02*
G37*
G36*
X234736Y43270D02*
X234496Y43498D01*
X234245Y43702D01*
X233984Y43882D01*
X233713Y44038D01*
X233431Y44170D01*
X233139Y44278D01*
X232836Y44362D01*
X232523Y44422D01*
X232200Y44458D01*
X231867Y44470D01*
Y46970D01*
X232200Y46982D01*
X232523Y47018D01*
X232836Y47078D01*
X233139Y47162D01*
X233431Y47270D01*
X233713Y47402D01*
X233984Y47558D01*
X234245Y47738D01*
X234496Y47942D01*
X234736Y48170D01*
Y43270D01*
D02*
G37*
G36*
X228383Y47983D02*
X228459Y47770D01*
X228585Y47583D01*
X228763Y47420D01*
X228990Y47283D01*
X229269Y47170D01*
X229598Y47083D01*
X229977Y47020D01*
X230408Y46982D01*
X230888Y46970D01*
Y44470D01*
X230408Y44458D01*
X229977Y44420D01*
X229598Y44358D01*
X229269Y44270D01*
X228990Y44158D01*
X228763Y44020D01*
X228585Y43857D01*
X228459Y43670D01*
X228383Y43457D01*
X228358Y43220D01*
Y48220D01*
X228383Y47983D01*
D02*
G37*
G36*
X478618Y42485D02*
X477792Y43297D01*
X476213Y44665D01*
X475460Y45221D01*
X474730Y45691D01*
X474025Y46076D01*
X473345Y46375D01*
X472688Y46589D01*
X472056Y46717D01*
X471447Y46760D01*
Y49760D01*
X472056Y49803D01*
X472688Y49931D01*
X473345Y50145D01*
X474025Y50444D01*
X474730Y50829D01*
X475460Y51299D01*
X476213Y51855D01*
X476991Y52496D01*
X478618Y54035D01*
Y42485D01*
D02*
G37*
G36*
X509827Y40010D02*
X508930Y39993D01*
X508072Y39922D01*
X507253Y39798D01*
X506473Y39620D01*
X505732Y39389D01*
X505031Y39104D01*
X504369Y38767D01*
X503746Y38375D01*
X503163Y37931D01*
X502618Y37433D01*
X499083Y40968D01*
X499581Y41513D01*
X500025Y42096D01*
X500417Y42719D01*
X500755Y43381D01*
X501039Y44082D01*
X501270Y44823D01*
X501448Y45603D01*
X501572Y46422D01*
X501643Y47280D01*
X501660Y48177D01*
X509827Y40010D01*
D02*
G37*
G36*
X218249Y37724D02*
X218226Y37614D01*
X218206Y37459D01*
X218174Y37011D01*
X218140Y35086D01*
X215640D01*
X215506Y37787D01*
X218274D01*
X218249Y37724D01*
D02*
G37*
G36*
X213249D02*
X213226Y37614D01*
X213206Y37459D01*
X213174Y37011D01*
X213140Y35086D01*
X210640D01*
X210506Y37787D01*
X213274D01*
X213249Y37724D01*
D02*
G37*
G36*
X183249D02*
X183226Y37614D01*
X183206Y37459D01*
X183174Y37011D01*
X183140Y35086D01*
X180640D01*
X180506Y37787D01*
X183274D01*
X183249Y37724D01*
D02*
G37*
G36*
X178249D02*
X178226Y37614D01*
X178206Y37459D01*
X178174Y37011D01*
X178140Y35086D01*
X175640D01*
X175506Y37787D01*
X178274D01*
X178249Y37724D01*
D02*
G37*
G36*
X173249D02*
X173226Y37614D01*
X173206Y37459D01*
X173174Y37011D01*
X173140Y35086D01*
X170640D01*
X170506Y37787D01*
X173274D01*
X173249Y37724D01*
D02*
G37*
G36*
X304735Y31751D02*
X305355Y31735D01*
Y26735D01*
X304735Y26719D01*
Y24235D01*
X304685Y24710D01*
X304534Y25135D01*
X304282Y25510D01*
X303930Y25835D01*
X303477Y26110D01*
X302924Y26335D01*
X302530Y26440D01*
X302136Y26335D01*
X301583Y26110D01*
X301130Y25835D01*
X300778Y25510D01*
X300526Y25135D01*
X300375Y24710D01*
X300325Y24235D01*
Y26719D01*
X299704Y26735D01*
Y31735D01*
X300325Y31751D01*
Y34235D01*
X300375Y33760D01*
X300526Y33335D01*
X300778Y32960D01*
X301130Y32635D01*
X301583Y32360D01*
X302136Y32135D01*
X302530Y32030D01*
X302924Y32135D01*
X303477Y32360D01*
X303930Y32635D01*
X304282Y32960D01*
X304534Y33335D01*
X304685Y33760D01*
X304735Y34235D01*
Y31751D01*
D02*
G37*
G36*
X164741Y26497D02*
X164804Y25599D01*
X164834Y25449D01*
X164868Y25328D01*
X164908Y25237D01*
X164954Y25175D01*
X165004Y25143D01*
X161937Y25502D01*
X161994Y25519D01*
X162045Y25561D01*
X162090Y25628D01*
X162129Y25720D01*
X162163Y25837D01*
X162190Y25979D01*
X162211Y26146D01*
X162235Y26554D01*
X162238Y26795D01*
X164738D01*
X164741Y26497D01*
D02*
G37*
G36*
X138426Y27490D02*
X138473Y27075D01*
X138551Y26695D01*
X138661Y26350D01*
X138802Y26040D01*
X138974Y25765D01*
X139178Y25525D01*
X139412Y25319D01*
X139679Y25149D01*
X139976Y25014D01*
X134344D01*
X134641Y25149D01*
X134908Y25319D01*
X135142Y25525D01*
X135346Y25765D01*
X135518Y26040D01*
X135659Y26350D01*
X135769Y26695D01*
X135847Y27075D01*
X135894Y27490D01*
X135910Y27940D01*
X138410D01*
X138426Y27490D01*
D02*
G37*
G36*
X337693Y33735D02*
X337844Y33310D01*
X338093Y32935D01*
X338443Y32610D01*
X338894Y32335D01*
X339444Y32110D01*
X340093Y31935D01*
X340844Y31810D01*
X341693Y31735D01*
X342644Y31710D01*
Y26710D01*
X341693Y26685D01*
X340844Y26610D01*
X340093Y26485D01*
X339444Y26310D01*
X338894Y26085D01*
X338443Y25810D01*
X338093Y25485D01*
X337844Y25110D01*
X337693Y24685D01*
X337644Y24210D01*
Y34210D01*
X337693Y33735D01*
D02*
G37*
G36*
X258827Y29080D02*
X258902Y28570D01*
X259027Y28120D01*
X259202Y27730D01*
X259427Y27400D01*
X259702Y27130D01*
X260027Y26920D01*
X260402Y26770D01*
X260827Y26680D01*
X261302Y26650D01*
X257302Y24150D01*
X253302Y26650D01*
X253777Y26680D01*
X254202Y26770D01*
X254577Y26920D01*
X254902Y27130D01*
X255177Y27400D01*
X255402Y27730D01*
X255577Y28120D01*
X255702Y28570D01*
X255777Y29080D01*
X255802Y29650D01*
X258802D01*
X258827Y29080D01*
D02*
G37*
G36*
X268097Y23291D02*
X268071Y23454D01*
X267997Y23600D01*
X267871Y23729D01*
X267696Y23841D01*
X267472Y23935D01*
X267197Y24012D01*
X266871Y24073D01*
X266497Y24116D01*
X266071Y24141D01*
X265597Y24150D01*
Y26650D01*
X266076Y26662D01*
X266505Y26700D01*
X266884Y26762D01*
X267212Y26850D01*
X267490Y26962D01*
X267718Y27100D01*
X267896Y27262D01*
X268023Y27450D01*
X268100Y27662D01*
X268127Y27900D01*
X268097Y23291D01*
D02*
G37*
G36*
X495337Y30152D02*
X494839Y29607D01*
X494395Y29024D01*
X494003Y28401D01*
X493666Y27739D01*
X493381Y27038D01*
X493150Y26297D01*
X492972Y25517D01*
X492848Y24698D01*
X492777Y23840D01*
X492760Y22943D01*
X484593Y31110D01*
X485490Y31127D01*
X486348Y31198D01*
X487167Y31322D01*
X487947Y31500D01*
X488688Y31731D01*
X489389Y32016D01*
X490051Y32353D01*
X490674Y32745D01*
X491257Y33189D01*
X491802Y33687D01*
X495337Y30152D01*
D02*
G37*
G36*
X299975Y23240D02*
X299634Y23091D01*
X299333Y22840D01*
X299072Y22490D01*
X298852Y22041D01*
X298671Y21490D01*
X298531Y20840D01*
X298431Y20090D01*
X298370Y19240D01*
X298351Y18290D01*
X293351D01*
X293326Y19240D01*
X293251Y20090D01*
X293125Y20840D01*
X292950Y21490D01*
X292726Y22041D01*
X292451Y22490D01*
X292125Y22840D01*
X291751Y23091D01*
X291325Y23240D01*
X290851Y23291D01*
X300355D01*
X299975Y23240D01*
D02*
G37*
G36*
X315199Y23221D02*
X314774Y23070D01*
X314399Y22818D01*
X314074Y22466D01*
X313799Y22013D01*
X313574Y21460D01*
X313399Y20806D01*
X313274Y20052D01*
X313199Y19196D01*
X313174Y18240D01*
X308174D01*
X308149Y19196D01*
X308074Y20052D01*
X307949Y20806D01*
X307774Y21460D01*
X307549Y22013D01*
X307274Y22466D01*
X306949Y22818D01*
X306574Y23070D01*
X306149Y23221D01*
X305674Y23271D01*
X315674D01*
X315199Y23221D01*
D02*
G37*
G36*
X86959Y20550D02*
X87035Y20338D01*
X87162Y20150D01*
X87339Y19988D01*
X87567Y19850D01*
X87845Y19738D01*
X88174Y19650D01*
X88553Y19588D01*
X88984Y19550D01*
X89465Y19538D01*
Y17038D01*
X88984Y17026D01*
X88553Y16988D01*
X88174Y16925D01*
X87845Y16838D01*
X87567Y16725D01*
X87339Y16588D01*
X87162Y16425D01*
X87035Y16238D01*
X86959Y16026D01*
X86934Y15788D01*
Y20788D01*
X86959Y20550D01*
D02*
G37*
G36*
X57049Y12583D02*
X56858Y12632D01*
X56643Y12630D01*
X56403Y12579D01*
X56139Y12479D01*
X55851Y12329D01*
X55538Y12130D01*
X55201Y11881D01*
X54840Y11582D01*
X54044Y10837D01*
X52276Y12605D01*
Y10105D01*
X51528Y10090D01*
X50267Y9975D01*
X49755Y9874D01*
X49322Y9745D01*
X48968Y9587D01*
X48692Y9400D01*
X48495Y9184D01*
X48377Y8939D01*
X48337Y8666D01*
Y15876D01*
X48377Y15729D01*
X48495Y15598D01*
X48692Y15482D01*
X48968Y15382D01*
X49322Y15297D01*
X49755Y15228D01*
X50267Y15174D01*
X51219Y15127D01*
X52076Y16104D01*
X52335Y16455D01*
X52540Y16774D01*
X52693Y17060D01*
X52793Y17313D01*
X52839Y17534D01*
X52832Y17722D01*
X57049Y12583D01*
D02*
G37*
G36*
X488630Y15712D02*
X487930Y15270D01*
X487305Y14792D01*
X486753Y14278D01*
X486274Y13727D01*
X485869Y13141D01*
X485538Y12519D01*
X485280Y11861D01*
X485096Y11167D01*
X484986Y10438D01*
X484949Y9672D01*
X479949Y11035D01*
X479924Y11726D01*
X479849Y12431D01*
X479724Y13150D01*
X479548Y13885D01*
X479323Y14633D01*
X479048Y15397D01*
X478347Y16968D01*
X477922Y17776D01*
X477446Y18598D01*
X488630Y15712D01*
D02*
G37*
G36*
X280203Y5678D02*
X279962Y5906D01*
X279711Y6110D01*
X279450Y6290D01*
X279179Y6446D01*
X278897Y6578D01*
X278605Y6686D01*
X278302Y6770D01*
X277990Y6830D01*
X277666Y6866D01*
X277333Y6878D01*
Y9378D01*
X277666Y9390D01*
X277990Y9426D01*
X278302Y9486D01*
X278605Y9570D01*
X278897Y9678D01*
X279179Y9810D01*
X279450Y9966D01*
X279711Y10146D01*
X279962Y10350D01*
X280203Y10578D01*
Y5678D01*
D02*
G37*
%LPC*%
G36*
X130650Y164805D02*
X130321Y164772D01*
X128947Y164204D01*
X127896Y163153D01*
X127715Y162715D01*
X130650D01*
Y164805D01*
D02*
G37*
G36*
X107790Y165696D02*
X99790D01*
Y161036D01*
X107790D01*
Y165696D01*
D02*
G37*
G36*
X95790D02*
X87790D01*
Y161036D01*
X95790Y161036D01*
Y165696D01*
D02*
G37*
G36*
X75210Y164320D02*
X70210D01*
Y161036D01*
X81136D01*
X80203Y162253D01*
X78740Y163375D01*
X77037Y164080D01*
X75210Y164320D01*
D02*
G37*
G36*
X66210D02*
X61210D01*
X59383Y164080D01*
X57680Y163375D01*
X56218Y162253D01*
X55284Y161036D01*
X66210D01*
Y164320D01*
D02*
G37*
G36*
X36210Y164320D02*
X31210D01*
Y161036D01*
X42136D01*
X41203Y162253D01*
X39740Y163375D01*
X38037Y164080D01*
X36210Y164320D01*
D02*
G37*
G36*
X130650Y158715D02*
X127254D01*
X127254Y150716D01*
X130650D01*
Y158715D01*
D02*
G37*
G36*
X145860Y164450D02*
X134860D01*
Y150450D01*
X145860D01*
Y164450D01*
D02*
G37*
G36*
X99790Y140462D02*
Y137696D01*
X107790D01*
Y140462D01*
X99790Y140462D01*
D02*
G37*
G36*
X90678D02*
X90678Y140462D01*
X90034Y140398D01*
X88843Y139905D01*
X87933Y138994D01*
X87439Y137804D01*
X87376Y137160D01*
Y133260D01*
X91716D01*
X91389Y134906D01*
X90373Y136426D01*
X90832Y137696D01*
X95790D01*
Y140462D01*
X90678D01*
D02*
G37*
G36*
X235680Y191696D02*
Y183696D01*
X243680D01*
Y191696D01*
X235680D01*
D02*
G37*
G36*
X211360D02*
X203360D01*
Y187059D01*
X206761Y187295D01*
X207111Y187404D01*
X207320Y187527D01*
X207390Y187666D01*
X207401Y183696D01*
X211360D01*
Y191696D01*
D02*
G37*
G36*
Y179696D02*
X207412D01*
X207421Y176438D01*
X207349Y177103D01*
X207137Y177698D01*
X206784Y178223D01*
X206292Y178678D01*
X205659Y179063D01*
X204885Y179378D01*
X203972Y179623D01*
X203533Y179696D01*
X203360D01*
Y171696D01*
X211360D01*
Y179696D01*
D02*
G37*
G36*
X243680D02*
X235680D01*
Y171696D01*
X243680D01*
Y179696D01*
D02*
G37*
G36*
X223680Y191696D02*
X222410Y191696D01*
X215360D01*
Y181696D01*
Y171696D01*
X222410D01*
X223360Y171696D01*
X224630Y171696D01*
X231680D01*
Y181696D01*
Y191696D01*
X224630D01*
X223680Y191696D01*
D02*
G37*
G36*
X196390Y183180D02*
X187420D01*
Y171180D01*
X200420D01*
Y179723D01*
X199820Y179623D01*
X198909Y179378D01*
X198139Y179063D01*
X197509Y178678D01*
X197020Y178223D01*
X196670Y177698D01*
X196460Y177103D01*
X196390Y176438D01*
Y183180D01*
D02*
G37*
G36*
X183420D02*
X170420D01*
Y171180D01*
X183420D01*
Y183180D01*
D02*
G37*
G36*
X466270Y164686D02*
X458270D01*
Y156686D01*
X466270D01*
Y164686D01*
D02*
G37*
G36*
X454270D02*
X446270D01*
Y156686D01*
X454270D01*
Y164686D01*
D02*
G37*
G36*
X320030Y158750D02*
X315030D01*
Y150250D01*
X315969D01*
Y153420D01*
X316019Y152945D01*
X316170Y152520D01*
X316422Y152145D01*
X316774Y151820D01*
X317227Y151545D01*
X317780Y151320D01*
X318434Y151145D01*
X319188Y151020D01*
X320030Y150946D01*
Y158750D01*
D02*
G37*
G36*
X343924Y158590D02*
X335924D01*
Y150590D01*
X343924D01*
Y158590D01*
D02*
G37*
G36*
X331924D02*
X323924D01*
Y150947D01*
X324754Y151020D01*
X325504Y151145D01*
X326155Y151320D01*
X326704Y151545D01*
X327155Y151820D01*
X327505Y152145D01*
X327755Y152520D01*
X327905Y152945D01*
X327954Y153420D01*
Y150590D01*
X331924D01*
Y158590D01*
D02*
G37*
G36*
X311030Y158750D02*
X306030D01*
Y150250D01*
X311030D01*
Y158750D01*
D02*
G37*
G36*
X343924Y146590D02*
X335924D01*
Y142651D01*
X338233D01*
X337890Y142608D01*
X337582Y142477D01*
X337311Y142260D01*
X337075Y141957D01*
X336876Y141566D01*
X336713Y141089D01*
X336587Y140524D01*
X336496Y139873D01*
X336442Y139136D01*
X336430Y138590D01*
X343924D01*
Y146590D01*
D02*
G37*
G36*
X464746Y86900D02*
X456746D01*
Y78900D01*
X464746D01*
Y86900D01*
D02*
G37*
G36*
X452746D02*
X444746D01*
Y78900D01*
X452746D01*
Y86900D01*
D02*
G37*
G36*
X417155Y69175D02*
X398185D01*
Y50205D01*
X417155D01*
Y69175D01*
D02*
G37*
G36*
X388599D02*
X386101D01*
X383689Y68529D01*
X381526Y67280D01*
X379760Y65514D01*
X378511Y63351D01*
X377865Y60939D01*
Y58441D01*
X378511Y56029D01*
X379760Y53866D01*
X381526Y52100D01*
X383689Y50851D01*
X386101Y50205D01*
X388599D01*
X391011Y50851D01*
X393174Y52100D01*
X394940Y53866D01*
X396189Y56029D01*
X396835Y58441D01*
Y60939D01*
X396189Y63351D01*
X394940Y65514D01*
X393174Y67280D01*
X391011Y68529D01*
X388599Y69175D01*
D02*
G37*
G36*
X311690Y106606D02*
X303690D01*
Y101483D01*
X305970Y101655D01*
X306600Y101790D01*
X307090Y101950D01*
X307440Y102134D01*
X307651Y102342D01*
X307721Y102576D01*
X307731Y98606D01*
X311690D01*
Y106606D01*
D02*
G37*
G36*
Y94606D02*
X307741D01*
X307751Y90848D01*
X307679Y91513D01*
X307467Y92108D01*
X307114Y92633D01*
X306622Y93088D01*
X305989Y93473D01*
X305216Y93788D01*
X304302Y94033D01*
X303690Y94135D01*
Y86606D01*
X311690D01*
Y94606D01*
D02*
G37*
G36*
X296800Y97090D02*
X292830D01*
Y85090D01*
X300830D01*
Y94133D01*
X300229Y94033D01*
X299319Y93788D01*
X298549Y93473D01*
X297920Y93088D01*
X297430Y92633D01*
X297080Y92108D01*
X296870Y91513D01*
X296800Y90848D01*
Y97090D01*
D02*
G37*
G36*
X288830D02*
X280830D01*
Y85090D01*
X288830D01*
Y97090D01*
D02*
G37*
G36*
X27210Y46260D02*
X15150D01*
Y41260D01*
X15390Y39433D01*
X16095Y37730D01*
X17218Y36267D01*
X18680Y35145D01*
X20383Y34440D01*
X20893Y34373D01*
X20892Y34457D01*
X20699Y36733D01*
X20583Y37379D01*
X20441Y37968D01*
X20273Y38501D01*
X20080Y38978D01*
X19861Y39398D01*
X19616Y39762D01*
X27210Y38495D01*
Y46260D01*
D02*
G37*
G36*
X82270Y46260D02*
X70210D01*
Y34200D01*
X75210D01*
X77037Y34440D01*
X78740Y35145D01*
X80203Y36267D01*
X81325Y37730D01*
X82030Y39433D01*
X82270Y41260D01*
Y46260D01*
D02*
G37*
G36*
X66210D02*
X54150D01*
Y41260D01*
X54390Y39433D01*
X55096Y37730D01*
X56217Y36267D01*
X57680Y35145D01*
X59383Y34440D01*
X61210Y34200D01*
X66210D01*
Y46260D01*
D02*
G37*
G36*
X43270Y46260D02*
X31210D01*
Y34200D01*
X36210D01*
X38037Y34440D01*
X39740Y35145D01*
X41203Y36267D01*
X42325Y37730D01*
X43030Y39433D01*
X43270Y41260D01*
Y46260D01*
D02*
G37*
G36*
X27210Y38063D02*
X27130Y38018D01*
X26805Y37691D01*
X26530Y37246D01*
X26305Y36685D01*
X26130Y36006D01*
X26005Y35209D01*
X25930Y34296D01*
X25928Y34200D01*
X27210D01*
Y38063D01*
D02*
G37*
G36*
X31368Y19906D02*
X25921D01*
X26034Y18326D01*
X26134Y17675D01*
X26263Y17126D01*
X26421Y16675D01*
X26607Y16326D01*
X26822Y16076D01*
X27065Y15926D01*
X27338Y15876D01*
X23368Y15862D01*
Y11906D01*
X31368D01*
Y19906D01*
D02*
G37*
G36*
X19368D02*
X11368D01*
Y11906D01*
X19368D01*
Y15848D01*
X18405Y15845D01*
X18880Y15897D01*
X19305Y16049D01*
X19368Y16091D01*
Y19906D01*
D02*
G37*
G36*
X113142Y28026D02*
X110378D01*
X107707Y27310D01*
X105313Y25928D01*
X103358Y23973D01*
X101976Y21579D01*
X101260Y18908D01*
Y16144D01*
X101976Y13473D01*
X103358Y11079D01*
X105313Y9124D01*
X107707Y7742D01*
X110378Y7026D01*
X113142D01*
X115813Y7742D01*
X118207Y9124D01*
X120162Y11079D01*
X121544Y13473D01*
X122260Y16144D01*
Y18908D01*
X121544Y21579D01*
X120162Y23973D01*
X118207Y25928D01*
X115813Y27310D01*
X113142Y28026D01*
D02*
G37*
G36*
X185960Y15526D02*
X175960D01*
Y5526D01*
X185960D01*
Y15526D01*
D02*
G37*
G36*
X511910Y35006D02*
Y24860D01*
X522056D01*
X521325Y27588D01*
X519712Y30382D01*
X517432Y32662D01*
X514638Y34275D01*
X511910Y35006D01*
D02*
G37*
G36*
X507910Y20860D02*
X497764D01*
X498495Y18132D01*
X500108Y15338D01*
X502388Y13058D01*
X505182Y11445D01*
X507910Y10714D01*
Y20860D01*
D02*
G37*
G36*
X522056D02*
X511910D01*
Y10714D01*
X514638Y11445D01*
X517432Y13058D01*
X519712Y15338D01*
X521325Y18132D01*
X522056Y20860D01*
D02*
G37*
%LPD*%
D12*
X221890Y45860D02*
Y64859D01*
X220718Y66030D02*
X221890Y64859D01*
X205925Y66030D02*
X220718D01*
D14*
X257302Y25400D02*
X270206D01*
X218354D02*
X257302D01*
X219456Y15494D02*
X294386D01*
X216890Y26865D02*
Y45860D01*
Y26865D02*
X218354Y25400D01*
X270206D02*
X274066Y29260D01*
X91948Y45720D02*
X92202Y45466D01*
X91948Y45720D02*
Y51308D01*
Y19753D02*
Y45720D01*
X99500Y58860D02*
X158890D01*
X91948Y51308D02*
X99500Y58860D01*
X181890Y34010D02*
Y45860D01*
Y34010D02*
X184912Y30988D01*
X203514D02*
X204978Y29523D01*
X184912Y30988D02*
X203514D01*
X204978Y18034D02*
Y29523D01*
Y18034D02*
X214884Y8128D01*
X282702D01*
X263144Y80010D02*
Y92300D01*
X240106Y93764D02*
X261679D01*
X263144Y92300D01*
X211890Y23060D02*
Y45860D01*
Y23060D02*
X219456Y15494D01*
X163488Y18454D02*
Y26795D01*
X162560Y17526D02*
X163488Y18454D01*
X176890Y33366D02*
Y45860D01*
X172234Y28710D02*
X176890Y33366D01*
X165402Y28710D02*
X172234D01*
X163488Y26795D02*
X165402Y28710D01*
X171890Y34730D02*
Y45860D01*
X170370Y33210D02*
X171890Y34730D01*
X142430Y33210D02*
X170370D01*
X137160Y27940D02*
X142430Y33210D01*
X137160Y17526D02*
Y27940D01*
X186890Y73152D02*
X220980D01*
X226890Y57590D02*
Y67242D01*
X220980Y73152D02*
X226890Y67242D01*
X177546Y69088D02*
X181610Y73152D01*
X177546Y60325D02*
Y69088D01*
X181610Y73152D02*
X186890D01*
Y126860D01*
X228160Y58860D02*
X239890D01*
X80010Y19050D02*
X80772Y18288D01*
X90484D01*
X91948Y19753D01*
X57658Y112268D02*
X58876D01*
X63090Y116482D01*
X78458D01*
X78708Y116732D01*
X53181Y86773D02*
X78613D01*
X78708Y86677D01*
X53086Y86868D02*
X53181Y86773D01*
X114976Y63764D02*
X158794D01*
X111110Y67630D02*
X114976Y63764D01*
X78708Y67010D02*
X110490D01*
X111110Y67630D01*
Y86440D01*
X158794Y63764D02*
X158890Y63860D01*
X226890Y45860D02*
X227030Y45720D01*
X237236D01*
X191890Y126860D02*
Y148710D01*
X186890Y126860D02*
Y153710D01*
X171890Y142650D02*
X184420Y155180D01*
X171890Y126860D02*
Y142650D01*
X226890Y57590D02*
X228160Y58860D01*
X226890Y45860D02*
Y57590D01*
X176082Y58860D02*
X177546Y60325D01*
X158890Y58860D02*
X176082D01*
X253846Y88860D02*
X255524Y87182D01*
Y65472D02*
Y87182D01*
X239890Y88860D02*
X253846D01*
X256989Y64008D02*
X262890D01*
X255524Y65472D02*
X256989Y64008D01*
X135890Y74930D02*
Y75008D01*
X133913Y91440D02*
X135390Y89963D01*
Y75508D02*
Y89963D01*
Y75508D02*
X135890Y75008D01*
X125110Y91440D02*
X133913D01*
X62230Y92612D02*
X63402Y91440D01*
X78462D01*
X62230Y92612D02*
Y100533D01*
X63402Y101705D02*
X78708D01*
X62230Y100533D02*
X63402Y101705D01*
X143402Y73860D02*
X158890D01*
X139890Y77372D02*
Y91827D01*
Y77372D02*
X143402Y73860D01*
X135277Y96440D02*
X139890Y91827D01*
X125110Y96440D02*
X135277D01*
X135890Y74930D02*
X141960Y68860D01*
X158890D01*
X78462Y91440D02*
X78708Y91686D01*
X94909Y96568D02*
X110982D01*
X78836D02*
X94909D01*
X78708Y106714D02*
X78742Y106680D01*
X93737D01*
X94909Y96568D02*
Y105508D01*
X93737Y106680D02*
X94909Y105508D01*
X78708Y91686D02*
X78831Y91563D01*
X110987D02*
X111110Y91440D01*
X78831Y91563D02*
X110987D01*
X110982Y96568D02*
X111110Y96440D01*
X78708Y96695D02*
X78836Y96568D01*
D19*
X331674Y29210D02*
D03*
X310674D02*
D03*
X42368Y9906D02*
D03*
X21368D02*
D03*
X314030Y129540D02*
D03*
X293030D02*
D03*
X433746Y88900D02*
D03*
X454746D02*
D03*
X435270Y154686D02*
D03*
X456270D02*
D03*
X274320Y187960D02*
D03*
X295320D02*
D03*
X354924Y148590D02*
D03*
X333924D02*
D03*
D20*
X181890Y45860D02*
D03*
X211890D02*
D03*
X226890Y126860D02*
D03*
X221890D02*
D03*
X216890D02*
D03*
X211890D02*
D03*
X206890D02*
D03*
X201890D02*
D03*
X196890D02*
D03*
X191890D02*
D03*
X186890D02*
D03*
X181890D02*
D03*
X176890D02*
D03*
X171890D02*
D03*
Y45860D02*
D03*
X176890D02*
D03*
X186890D02*
D03*
X191890D02*
D03*
X196890D02*
D03*
X201890D02*
D03*
X206890D02*
D03*
X216890D02*
D03*
X221890D02*
D03*
X226890D02*
D03*
D21*
X239890Y93860D02*
D03*
Y58860D02*
D03*
Y63860D02*
D03*
Y68860D02*
D03*
Y73860D02*
D03*
Y78860D02*
D03*
Y83860D02*
D03*
Y88860D02*
D03*
Y98860D02*
D03*
Y103860D02*
D03*
Y108860D02*
D03*
Y113860D02*
D03*
X158890D02*
D03*
Y108860D02*
D03*
Y103860D02*
D03*
Y98860D02*
D03*
Y93860D02*
D03*
Y88860D02*
D03*
Y83860D02*
D03*
Y78860D02*
D03*
Y73860D02*
D03*
Y68860D02*
D03*
Y63860D02*
D03*
Y58860D02*
D03*
D22*
X294386Y29260D02*
D03*
X233680Y160696D02*
D03*
Y181696D02*
D03*
X274320Y168910D02*
D03*
Y147910D02*
D03*
X274066Y29260D02*
D03*
Y50260D02*
D03*
X294386D02*
D03*
X313690Y75606D02*
D03*
Y96606D02*
D03*
X120650Y181716D02*
D03*
Y160716D02*
D03*
X213360Y160696D02*
D03*
Y181696D02*
D03*
D23*
X159360Y185450D02*
D03*
X140360Y185450D02*
D03*
X149860Y185450D02*
D03*
X159360Y157450D02*
D03*
X140360Y157450D02*
D03*
D24*
X290830Y99090D02*
D03*
X290830Y71090D02*
D03*
X97790Y151696D02*
D03*
Y179696D02*
D03*
D25*
X463810Y179070D02*
D03*
X432810D02*
D03*
X461270Y64770D02*
D03*
X430270D02*
D03*
X61220Y179070D02*
D03*
X30220D02*
D03*
D26*
X125110Y91440D02*
D03*
Y96440D02*
D03*
Y86440D02*
D03*
X111110Y96440D02*
D03*
Y86440D02*
D03*
Y91440D02*
D03*
D27*
X461270Y114927D02*
D03*
X430270Y125927D02*
D03*
X461270D02*
D03*
X430270Y114927D02*
D03*
D28*
X78708Y75010D02*
D03*
Y123260D02*
D03*
Y131260D02*
D03*
Y67010D02*
D03*
D29*
Y81668D02*
D03*
Y86677D02*
D03*
Y91686D02*
D03*
Y96695D02*
D03*
Y101705D02*
D03*
Y106714D02*
D03*
Y111723D02*
D03*
Y116732D02*
D03*
D30*
X68210Y150260D02*
D03*
X68210Y48260D02*
D03*
X29210Y150260D02*
D03*
Y48260D02*
D03*
D31*
X395070Y86360D02*
D03*
Y99060D02*
D03*
Y111760D02*
D03*
Y124460D02*
D03*
X344070Y86360D02*
D03*
Y99060D02*
D03*
Y111760D02*
D03*
Y124460D02*
D03*
D32*
X185420Y155180D02*
D03*
Y185180D02*
D03*
D33*
X354670Y176530D02*
D03*
X333670Y167030D02*
D03*
X333670Y186030D02*
D03*
D34*
X303530Y169250D02*
D03*
X313030Y148250D02*
D03*
X294030Y148250D02*
D03*
D60*
X440889Y31805D02*
X440944Y31750D01*
X354131Y31805D02*
X440889D01*
X331674Y29210D02*
X351536D01*
X354131Y31805D01*
X310674Y9620D02*
X313603Y6691D01*
X479520D02*
X482449Y9620D01*
X313603Y6691D02*
X479520D01*
X310674Y9620D02*
Y29210D01*
X482449Y9620D02*
Y20799D01*
X509910Y48260D01*
X295875Y29235D02*
X310649D01*
X295851Y29210D02*
X295875Y29235D01*
X295851Y15494D02*
Y29210D01*
X274320Y168910D02*
Y187960D01*
X58721Y19050D02*
X59690D01*
X42368Y9906D02*
X45066Y12605D01*
X52276D02*
X58721Y19050D01*
X45066Y12605D02*
X52276D01*
X21368Y9906D02*
X23405Y11943D01*
Y42455D01*
X29210Y48260D01*
X463810Y179070D02*
X479671D01*
X482600Y173109D02*
X485529Y170180D01*
X509270D01*
X482600Y173109D02*
Y176141D01*
X479671Y179070D02*
X482600Y176141D01*
X484510Y71760D02*
Y107459D01*
X487439Y110388D01*
X500278D01*
X509270Y119380D01*
X478536Y65786D02*
X484510Y71760D01*
X462286Y65786D02*
X478536D01*
X461270Y64770D02*
X462286Y65786D01*
X274320Y172974D02*
X288798D01*
X334402Y50260D02*
X340106Y55964D01*
X294386Y50260D02*
X334402D01*
X340106Y55964D02*
Y85436D01*
X341030Y86360D02*
X344070D01*
X340106Y85436D02*
X341030Y86360D01*
X344070Y99060D02*
X364236D01*
X159360Y185450D02*
X159436Y185374D01*
Y170002D02*
X159512Y169926D01*
X159436Y170002D02*
Y185374D01*
X364236Y98806D02*
Y99060D01*
X319862Y166954D02*
X333594D01*
X319786Y166878D02*
X319862Y166954D01*
X333594D02*
X333670Y167030D01*
X461270Y106307D02*
Y114927D01*
X436675Y103378D02*
X458341D01*
X433746Y68246D02*
Y100449D01*
X436675Y103378D01*
X458341D02*
X461270Y106307D01*
X457962Y138684D02*
X461270Y135376D01*
Y125927D02*
Y135376D01*
X438199Y138684D02*
X457962D01*
X435270Y141613D02*
X438199Y138684D01*
X435270Y141613D02*
Y154686D01*
X432810Y179070D02*
X435270Y176610D01*
Y154686D02*
Y176610D01*
X430270Y64770D02*
X433746Y68246D01*
X313690Y96606D02*
X324261Y107177D01*
X324460D01*
X329043Y111760D01*
X344070D01*
X361561D01*
X364490Y114689D01*
Y132453D01*
X336853Y135382D02*
X361561D01*
X364490Y132453D01*
X333924Y138311D02*
Y148590D01*
Y138311D02*
X336853Y135382D01*
X313530Y130040D02*
Y147750D01*
Y130040D02*
X314030Y129540D01*
X313030Y148250D02*
X313530Y147750D01*
X313200Y148420D02*
X333754D01*
X313030Y148250D02*
X313200Y148420D01*
X333754D02*
X333924Y148590D01*
X328557Y124077D02*
X343687D01*
X325628Y121148D02*
X328557Y124077D01*
X276995Y115316D02*
X322699D01*
X325628Y118245D02*
Y121148D01*
X322699Y115316D02*
X325628Y118245D01*
X274066Y50260D02*
Y112387D01*
X276995Y115316D01*
X343687Y124077D02*
X344070Y124460D01*
X293030Y129540D02*
X293530Y130040D01*
Y147750D01*
X293860Y148080D01*
X233680Y160696D02*
X234356Y160020D01*
X249293D02*
X252222Y162949D01*
Y165862D01*
X234356Y160020D02*
X249293D01*
X255270Y168910D02*
X274320D01*
X252222Y165862D02*
X255270Y168910D01*
X213360Y160696D02*
X233680D01*
X159360Y157450D02*
X183150D01*
X190936Y160696D02*
X213360D01*
X185420Y155180D02*
X190936Y160696D01*
X326390Y96131D02*
X328936Y98677D01*
X326390Y81669D02*
Y96131D01*
X343687Y98677D02*
X344070Y99060D01*
X328936Y98677D02*
X343687D01*
X320921Y76200D02*
X326390Y81669D01*
X314284Y76200D02*
X320921D01*
X313690Y75606D02*
X314284Y76200D01*
X312420Y176179D02*
Y183601D01*
X304030Y173250D02*
X309491D01*
X303530Y169250D02*
Y172750D01*
X304030Y173250D01*
X309491D02*
X312420Y176179D01*
X295320Y187960D02*
X296750Y186530D01*
X315349D01*
X333170D01*
X312420Y183601D02*
X315349Y186530D01*
X274490Y148080D02*
X293860D01*
X294030Y148250D01*
X274320Y147910D02*
X274490Y148080D01*
X333170Y186530D02*
X333670Y186030D01*
X354670Y176530D02*
X354797Y176403D01*
Y148717D02*
X354924Y148590D01*
X354797Y148717D02*
Y176403D01*
X370451Y148590D02*
X375920Y143121D01*
Y89289D02*
Y143121D01*
X354924Y148590D02*
X370451D01*
X375920Y89289D02*
X378849Y86360D01*
X395070D01*
D61*
X257302Y25400D02*
Y35814D01*
X261112Y39624D02*
X438150D01*
X257302Y35814D02*
X261112Y39624D01*
X446786Y48260D02*
X484510D01*
X438150Y39624D02*
X446786Y48260D01*
X420062Y113271D02*
X428614D01*
X412750Y99060D02*
X415290Y101600D01*
Y108499D01*
X428614Y113271D02*
X430270Y114927D01*
X415290Y108499D02*
X420062Y113271D01*
X395070Y99060D02*
X412750D01*
X430025Y125683D02*
X430270Y125927D01*
X415290Y122703D02*
X418270Y125683D01*
X415290Y115570D02*
Y122703D01*
X418270Y125683D02*
X430025D01*
X411480Y111760D02*
X415290Y115570D01*
X395070Y111760D02*
X411480D01*
D62*
X211618Y183438D02*
X213360Y181696D01*
X187162Y183438D02*
X211618D01*
X185420Y185180D02*
X187162Y183438D01*
X293330Y75606D02*
X313690D01*
X290830Y73106D02*
X293330Y75606D01*
X290830Y71090D02*
Y73106D01*
X292072Y97848D02*
X312448D01*
X313690Y96606D01*
X290830Y99090D02*
X292072Y97848D01*
D63*
X63010Y70360D02*
D03*
X63010Y128160D02*
D03*
X440944Y31750D02*
D03*
X282702Y8128D02*
D03*
X263144Y80010D02*
D03*
X250190Y179832D02*
D03*
X259588D02*
D03*
Y189738D02*
D03*
X250190D02*
D03*
X288798Y172974D02*
D03*
X177292Y90170D02*
D03*
Y101092D02*
D03*
X205925Y66030D02*
D03*
X159512Y169926D02*
D03*
X364236Y98806D02*
D03*
X319786Y166878D02*
D03*
X57658Y112268D02*
D03*
X53086Y86868D02*
D03*
X237236Y45720D02*
D03*
X262890Y64008D02*
D03*
D64*
X509910Y48260D02*
D03*
X484510Y22860D02*
D03*
Y48260D02*
D03*
Y73660D02*
D03*
X509910Y22860D02*
D03*
D65*
Y73660D02*
D03*
D66*
X407670Y59690D02*
D03*
X80010Y19050D02*
D03*
X408940Y20320D02*
D03*
D67*
X387350Y59690D02*
D03*
X59690Y19050D02*
D03*
X388620Y20320D02*
D03*
D68*
X509270Y170180D02*
D03*
D69*
Y119380D02*
D03*
D70*
X162560Y17526D02*
D03*
X137160D02*
D03*
X111760D02*
D03*
D71*
X187960D02*
D03*
D72*
X531311Y50981D02*
D03*
Y10981D02*
D03*
X411311Y170981D02*
D03*
Y150981D02*
D03*
X391311Y170981D02*
D03*
Y150981D02*
D03*
X371311Y170981D02*
D03*
Y70981D02*
D03*
X351311Y50981D02*
D03*
X271311Y130981D02*
D03*
X251311D02*
D03*
X211311Y90981D02*
D03*
X151311Y130981D02*
D03*
X131311D02*
D03*
Y110981D02*
D03*
X111311D02*
D03*
M02*
