G04*
G04 #@! TF.GenerationSoftware,Altium Limited,Altium Designer,24.2.2 (26)*
G04*
G04 Layer_Color=2752767*
%FSLAX44Y44*%
%MOMM*%
G71*
G04*
G04 #@! TF.SameCoordinates,200C4C84-4450-49E8-9A81-A87B66CA8C1A*
G04*
G04*
G04 #@! TF.FilePolarity,Positive*
G04*
G01*
G75*
%ADD16C,0.1270*%
%ADD75C,0.1693*%
D16*
X509910Y43180D02*
X512450Y45720D01*
X514990D01*
X512450Y48260D01*
X514990Y50800D01*
X512450D01*
X509910Y53340D01*
X507370Y50800D01*
X504830D01*
X507370Y48260D01*
X504830Y45720D01*
X507370D01*
X509910Y43180D01*
X484510Y17780D02*
X487050Y20320D01*
X489590D01*
X487050Y22860D01*
X489590Y25400D01*
X487050D01*
X484510Y27940D01*
X481970Y25400D01*
X479430D01*
X481970Y22860D01*
X479430Y20320D01*
X481970D01*
X484510Y17780D01*
Y43180D02*
X487050Y45720D01*
X489590D01*
X487050Y48260D01*
X489590Y50800D01*
X487050D01*
X484510Y53340D01*
X481970Y50800D01*
X479430D01*
X481970Y48260D01*
X479430Y45720D01*
X481970D01*
X484510Y43180D01*
Y68580D02*
X487050Y71120D01*
X489590D01*
X487050Y73660D01*
X489590Y76200D01*
X487050D01*
X484510Y78740D01*
X481970Y76200D01*
X479430D01*
X481970Y73660D01*
X479430Y71120D01*
X481970D01*
X484510Y68580D01*
X509910D02*
X512450Y71120D01*
X514990D01*
X512450Y73660D01*
X514990Y76200D01*
X512450D01*
X509910Y78740D01*
X507370Y76200D01*
X504830D01*
X507370Y73660D01*
X504830Y71120D01*
X507370D01*
X509910Y68580D01*
Y17780D02*
X512450Y20320D01*
X514990D01*
X512450Y22860D01*
X514990Y25400D01*
X512450D01*
X509910Y27940D01*
X507370Y25400D01*
X504830D01*
X507370Y22860D01*
X504830Y20320D01*
X507370D01*
X509910Y17780D01*
X407670Y54610D02*
X402590Y64770D01*
X412750D01*
X407670Y54610D01*
X387350D02*
X382270Y64770D01*
X392430D01*
X387350Y54610D01*
X59690Y13970D02*
X54610Y24130D01*
X64770D01*
X59690Y13970D01*
X80010D02*
X74930Y24130D01*
X85090D01*
X80010Y13970D01*
X408940Y15240D02*
X403860Y25400D01*
X414020D01*
X408940Y15240D01*
X388620D02*
X383540Y25400D01*
X393700D01*
X388620Y15240D01*
X504190Y165100D02*
Y175260D01*
X514350D01*
Y165100D01*
X504190D01*
Y114300D02*
Y124460D01*
X514350D01*
Y114300D01*
X504190D01*
X162560Y12446D02*
X165100Y14986D01*
X167640D01*
X165100Y17526D01*
X167640Y20066D01*
X165100D01*
X162560Y22606D01*
X160020Y20066D01*
X157480D01*
X160020Y17526D01*
X157480Y14986D01*
X160020D01*
X162560Y12446D01*
X187960D02*
X190500Y14986D01*
X193040D01*
X190500Y17526D01*
X193040Y20066D01*
X190500D01*
X187960Y22606D01*
X185420Y20066D01*
X182880D01*
X185420Y17526D01*
X182880Y14986D01*
X185420D01*
X187960Y12446D01*
X137160D02*
X139700Y14986D01*
X142240D01*
X139700Y17526D01*
X142240Y20066D01*
X139700D01*
X137160Y22606D01*
X134620Y20066D01*
X132080D01*
X134620Y17526D01*
X132080Y14986D01*
X134620D01*
X137160Y12446D01*
X111760D02*
X114300Y14986D01*
X116840D01*
X114300Y17526D01*
X116840Y20066D01*
X114300D01*
X111760Y22606D01*
X109220Y20066D01*
X106680D01*
X109220Y17526D01*
X106680Y14986D01*
X109220D01*
X111760Y12446D01*
X435864Y26670D02*
X438404Y31750D01*
X435864Y36830D01*
X440944Y34290D01*
X446024Y36830D01*
X443484Y31750D01*
X446024Y26670D01*
X440944Y29210D01*
X435864Y26670D01*
X277622Y3048D02*
X280162Y8128D01*
X277622Y13208D01*
X282702Y10668D01*
X287782Y13208D01*
X285242Y8128D01*
X287782Y3048D01*
X282702Y5588D01*
X277622Y3048D01*
X258064Y74930D02*
X260604Y80010D01*
X258064Y85090D01*
X263144Y82550D01*
X268224Y85090D01*
X265684Y80010D01*
X268224Y74930D01*
X263144Y77470D01*
X258064Y74930D01*
X528771Y48441D02*
Y45901D01*
X533851D01*
Y48441D01*
X536391D01*
Y53521D01*
X533851D01*
Y56061D01*
X528771D01*
Y53521D01*
X526231D01*
Y48441D01*
X528771D01*
Y8441D02*
Y5901D01*
X533851D01*
Y8441D01*
X536391D01*
Y13521D01*
X533851D01*
Y16061D01*
X528771D01*
Y13521D01*
X526231D01*
Y8441D01*
X528771D01*
X408771Y168441D02*
Y165901D01*
X413851D01*
Y168441D01*
X416391D01*
Y173521D01*
X413851D01*
Y176061D01*
X408771D01*
Y173521D01*
X406231D01*
Y168441D01*
X408771D01*
Y148441D02*
Y145901D01*
X413851D01*
Y148441D01*
X416391D01*
Y153521D01*
X413851D01*
Y156061D01*
X408771D01*
Y153521D01*
X406231D01*
Y148441D01*
X408771D01*
X388771Y168441D02*
Y165901D01*
X393851D01*
Y168441D01*
X396391D01*
Y173521D01*
X393851D01*
Y176061D01*
X388771D01*
Y173521D01*
X386231D01*
Y168441D01*
X388771D01*
Y148441D02*
Y145901D01*
X393851D01*
Y148441D01*
X396391D01*
Y153521D01*
X393851D01*
Y156061D01*
X388771D01*
Y153521D01*
X386231D01*
Y148441D01*
X388771D01*
X368771Y168441D02*
Y165901D01*
X373851D01*
Y168441D01*
X376391D01*
Y173521D01*
X373851D01*
Y176061D01*
X368771D01*
Y173521D01*
X366231D01*
Y168441D01*
X368771D01*
Y68441D02*
Y65901D01*
X373851D01*
Y68441D01*
X376391D01*
Y73521D01*
X373851D01*
Y76061D01*
X368771D01*
Y73521D01*
X366231D01*
Y68441D01*
X368771D01*
X348771Y48441D02*
Y45901D01*
X353851D01*
Y48441D01*
X356391D01*
Y53521D01*
X353851D01*
Y56061D01*
X348771D01*
Y53521D01*
X346231D01*
Y48441D01*
X348771D01*
X268771Y128441D02*
Y125901D01*
X273851D01*
Y128441D01*
X276391D01*
Y133521D01*
X273851D01*
Y136061D01*
X268771D01*
Y133521D01*
X266231D01*
Y128441D01*
X268771D01*
X248771D02*
Y125901D01*
X253851D01*
Y128441D01*
X256391D01*
Y133521D01*
X253851D01*
Y136061D01*
X248771D01*
Y133521D01*
X246231D01*
Y128441D01*
X248771D01*
X208771Y88441D02*
Y85901D01*
X213851D01*
Y88441D01*
X216391D01*
Y93521D01*
X213851D01*
Y96061D01*
X208771D01*
Y93521D01*
X206231D01*
Y88441D01*
X208771D01*
X148771Y128441D02*
Y125901D01*
X153851D01*
Y128441D01*
X156391D01*
Y133521D01*
X153851D01*
Y136061D01*
X148771D01*
Y133521D01*
X146231D01*
Y128441D01*
X148771D01*
X128771D02*
Y125901D01*
X133851D01*
Y128441D01*
X136391D01*
Y133521D01*
X133851D01*
Y136061D01*
X128771D01*
Y133521D01*
X126231D01*
Y128441D01*
X128771D01*
Y108441D02*
Y105901D01*
X133851D01*
Y108441D01*
X136391D01*
Y113521D01*
X133851D01*
Y116061D01*
X128771D01*
Y113521D01*
X126231D01*
Y108441D01*
X128771D01*
X108771D02*
Y105901D01*
X113851D01*
Y108441D01*
X116391D01*
Y113521D01*
X113851D01*
Y116061D01*
X108771D01*
Y113521D01*
X106231D01*
Y108441D01*
X108771D01*
X245110Y174752D02*
X247650Y179832D01*
X245110Y184912D01*
X250190Y182372D01*
X255270Y184912D01*
X252730Y179832D01*
X255270Y174752D01*
X250190Y177292D01*
X245110Y174752D01*
X254508D02*
X257048Y179832D01*
X254508Y184912D01*
X259588Y182372D01*
X264668Y184912D01*
X262128Y179832D01*
X264668Y174752D01*
X259588Y177292D01*
X254508Y174752D01*
Y184658D02*
X257048Y189738D01*
X254508Y194818D01*
X259588Y192278D01*
X264668Y194818D01*
X262128Y189738D01*
X264668Y184658D01*
X259588Y187198D01*
X254508Y184658D01*
X245110D02*
X247650Y189738D01*
X245110Y194818D01*
X250190Y192278D01*
X255270Y194818D01*
X252730Y189738D01*
X255270Y184658D01*
X250190Y187198D01*
X245110Y184658D01*
X283718Y167894D02*
X286258Y172974D01*
X283718Y178054D01*
X288798Y175514D01*
X293878Y178054D01*
X291338Y172974D01*
X293878Y167894D01*
X288798Y170434D01*
X283718Y167894D01*
X172212Y85090D02*
X174752Y90170D01*
X172212Y95250D01*
X177292Y92710D01*
X182372Y95250D01*
X179832Y90170D01*
X182372Y85090D01*
X177292Y87630D01*
X172212Y85090D01*
Y96012D02*
X174752Y101092D01*
X172212Y106172D01*
X177292Y103632D01*
X182372Y106172D01*
X179832Y101092D01*
X182372Y96012D01*
X177292Y98552D01*
X172212Y96012D01*
X200845Y60950D02*
X203385Y66030D01*
X200845Y71110D01*
X205925Y68570D01*
X211005Y71110D01*
X208465Y66030D01*
X211005Y60950D01*
X205925Y63490D01*
X200845Y60950D01*
X154432Y164846D02*
X156972Y169926D01*
X154432Y175006D01*
X159512Y172466D01*
X164592Y175006D01*
X162052Y169926D01*
X164592Y164846D01*
X159512Y167386D01*
X154432Y164846D01*
X359156Y93726D02*
X361696Y98806D01*
X359156Y103886D01*
X364236Y101346D01*
X369316Y103886D01*
X366776Y98806D01*
X369316Y93726D01*
X364236Y96266D01*
X359156Y93726D01*
X314706Y161798D02*
X317246Y166878D01*
X314706Y171958D01*
X319786Y169418D01*
X324866Y171958D01*
X322326Y166878D01*
X324866Y161798D01*
X319786Y164338D01*
X314706Y161798D01*
X52578Y107188D02*
X55118Y112268D01*
X52578Y117348D01*
X57658Y114808D01*
X62738Y117348D01*
X60198Y112268D01*
X62738Y107188D01*
X57658Y109728D01*
X52578Y107188D01*
X48006Y81788D02*
X50546Y86868D01*
X48006Y91948D01*
X53086Y89408D01*
X58166Y91948D01*
X55626Y86868D01*
X58166Y81788D01*
X53086Y84328D01*
X48006Y81788D01*
X232156Y40640D02*
X234696Y45720D01*
X232156Y50800D01*
X237236Y48260D01*
X242316Y50800D01*
X239776Y45720D01*
X242316Y40640D01*
X237236Y43180D01*
X232156Y40640D01*
X257810Y58928D02*
X260350Y64008D01*
X257810Y69088D01*
X262890Y66548D01*
X267970Y69088D01*
X265430Y64008D01*
X267970Y58928D01*
X262890Y61468D01*
X257810Y58928D01*
D75*
X68090Y70360D02*
G03*
X68090Y70360I-5080J0D01*
G01*
X68090Y128160D02*
G03*
X68090Y128160I-5080J0D01*
G01*
M02*
