G04*
G04 #@! TF.GenerationSoftware,Altium Limited,Altium Designer,24.2.2 (26)*
G04*
G04 Layer_Color=128*
%FSLAX44Y44*%
%MOMM*%
G71*
G04*
G04 #@! TF.SameCoordinates,200C4C84-4450-49E8-9A81-A87B66CA8C1A*
G04*
G04*
G04 #@! TF.FilePolarity,Positive*
G04*
G01*
G75*
%ADD16C,0.1270*%
D16*
X59510Y70360D02*
X66510D01*
X63010Y66860D02*
Y73860D01*
X59510Y128160D02*
X66510D01*
X63010Y124660D02*
Y131660D01*
X504410Y48260D02*
X515410D01*
X509910Y42760D02*
Y53760D01*
X479010Y22860D02*
X490010D01*
X484510Y17360D02*
Y28360D01*
X479010Y48260D02*
X490010D01*
X484510Y42760D02*
Y53760D01*
X479010Y73660D02*
X490010D01*
X484510Y68160D02*
Y79160D01*
X504410Y73660D02*
X515410D01*
X509910Y68160D02*
Y79160D01*
X504410Y22860D02*
X515410D01*
X509910Y17360D02*
Y28360D01*
X403860Y59690D02*
X411480D01*
X407670Y55880D02*
Y63500D01*
X383540Y59690D02*
X391160D01*
X387350Y55880D02*
Y63500D01*
X55880Y19050D02*
X63500D01*
X59690Y15240D02*
Y22860D01*
X76200Y19050D02*
X83820D01*
X80010Y15240D02*
Y22860D01*
X405130Y20320D02*
X412750D01*
X408940Y16510D02*
Y24130D01*
X384810Y20320D02*
X392430D01*
X388620Y16510D02*
Y24130D01*
X501270Y170180D02*
X517270D01*
X509270Y162180D02*
Y178180D01*
X501270Y119380D02*
X517270D01*
X509270Y111380D02*
Y127380D01*
X157060Y17526D02*
X168060D01*
X162560Y12026D02*
Y23026D01*
X182460Y17526D02*
X193460D01*
X187960Y12026D02*
Y23026D01*
X131660Y17526D02*
X142660D01*
X137160Y12026D02*
Y23026D01*
X106260Y17526D02*
X117260D01*
X111760Y12026D02*
Y23026D01*
X438944Y31750D02*
X442944D01*
X440944Y29750D02*
Y33750D01*
X280702Y8128D02*
X284702D01*
X282702Y6128D02*
Y10128D01*
X261144Y80010D02*
X265144D01*
X263144Y78010D02*
Y82010D01*
X528811Y50981D02*
X533811D01*
X531311Y48481D02*
Y53481D01*
X528811Y10981D02*
X533811D01*
X531311Y8481D02*
Y13481D01*
X408811Y170981D02*
X413811D01*
X411311Y168481D02*
Y173481D01*
X408811Y150981D02*
X413811D01*
X411311Y148481D02*
Y153481D01*
X388811Y170981D02*
X393811D01*
X391311Y168481D02*
Y173481D01*
X388811Y150981D02*
X393811D01*
X391311Y148481D02*
Y153481D01*
X368811Y170981D02*
X373811D01*
X371311Y168481D02*
Y173481D01*
X368811Y70981D02*
X373811D01*
X371311Y68481D02*
Y73481D01*
X348811Y50981D02*
X353811D01*
X351311Y48481D02*
Y53481D01*
X268811Y130981D02*
X273811D01*
X271311Y128481D02*
Y133481D01*
X248811Y130981D02*
X253811D01*
X251311Y128481D02*
Y133481D01*
X208811Y90981D02*
X213811D01*
X211311Y88481D02*
Y93481D01*
X148811Y130981D02*
X153811D01*
X151311Y128481D02*
Y133481D01*
X128811Y130981D02*
X133811D01*
X131311Y128481D02*
Y133481D01*
X128811Y110981D02*
X133811D01*
X131311Y108481D02*
Y113481D01*
X108811Y110981D02*
X113811D01*
X111311Y108481D02*
Y113481D01*
X248190Y179832D02*
X252190D01*
X250190Y177832D02*
Y181832D01*
X257588Y179832D02*
X261588D01*
X259588Y177832D02*
Y181832D01*
X257588Y189738D02*
X261588D01*
X259588Y187738D02*
Y191738D01*
X248190Y189738D02*
X252190D01*
X250190Y187738D02*
Y191738D01*
X286798Y172974D02*
X290798D01*
X288798Y170974D02*
Y174974D01*
X175292Y90170D02*
X179292D01*
X177292Y88170D02*
Y92170D01*
X175292Y101092D02*
X179292D01*
X177292Y99092D02*
Y103092D01*
X203925Y66030D02*
X207925D01*
X205925Y64030D02*
Y68030D01*
X157512Y169926D02*
X161512D01*
X159512Y167926D02*
Y171926D01*
X362236Y98806D02*
X366236D01*
X364236Y96806D02*
Y100806D01*
X317786Y166878D02*
X321786D01*
X319786Y164878D02*
Y168878D01*
X55658Y112268D02*
X59658D01*
X57658Y110268D02*
Y114268D01*
X51086Y86868D02*
X55086D01*
X53086Y84868D02*
Y88868D01*
X235236Y45720D02*
X239236D01*
X237236Y43720D02*
Y47720D01*
X260890Y64008D02*
X264890D01*
X262890Y62008D02*
Y66008D01*
M02*
