G04*
G04 #@! TF.GenerationSoftware,Altium Limited,Altium Designer,24.2.2 (26)*
G04*
G04 Layer_Color=8388736*
%FSLAX44Y44*%
%MOMM*%
G71*
G04*
G04 #@! TF.SameCoordinates,200C4C84-4450-49E8-9A81-A87B66CA8C1A*
G04*
G04*
G04 #@! TF.FilePolarity,Negative*
G04*
G01*
G75*
%ADD35R,1.4032X1.4032*%
%ADD36O,0.5032X2.0032*%
%ADD37O,2.0032X0.5032*%
%ADD38R,1.4032X1.4032*%
%ADD39R,0.8032X1.1032*%
%ADD40R,1.4032X2.2032*%
%ADD41R,1.7032X2.1032*%
%ADD42R,1.0532X0.5032*%
%ADD43R,1.7032X1.0032*%
G04:AMPARAMS|DCode=44|XSize=0.75mm|YSize=1.95mm|CornerRadius=0.225mm|HoleSize=0mm|Usage=FLASHONLY|Rotation=270.000|XOffset=0mm|YOffset=0mm|HoleType=Round|Shape=RoundedRectangle|*
%AMROUNDEDRECTD44*
21,1,0.7500,1.5000,0,0,270.0*
21,1,0.3000,1.9500,0,0,270.0*
1,1,0.4500,-0.7500,-0.1500*
1,1,0.4500,-0.7500,0.1500*
1,1,0.4500,0.7500,0.1500*
1,1,0.4500,0.7500,-0.1500*
%
%ADD44ROUNDEDRECTD44*%
G04:AMPARAMS|DCode=45|XSize=0.45mm|YSize=1.95mm|CornerRadius=0.15mm|HoleSize=0mm|Usage=FLASHONLY|Rotation=270.000|XOffset=0mm|YOffset=0mm|HoleType=Round|Shape=RoundedRectangle|*
%AMROUNDEDRECTD45*
21,1,0.4500,1.6500,0,0,270.0*
21,1,0.1500,1.9500,0,0,270.0*
1,1,0.3000,-0.8250,-0.0750*
1,1,0.3000,-0.8250,0.0750*
1,1,0.3000,0.8250,0.0750*
1,1,0.3000,0.8250,-0.0750*
%
%ADD45ROUNDEDRECTD45*%
G04:AMPARAMS|DCode=46|XSize=2.2032mm|YSize=2.2032mm|CornerRadius=0.4016mm|HoleSize=0mm|Usage=FLASHONLY|Rotation=270.000|XOffset=0mm|YOffset=0mm|HoleType=Round|Shape=RoundedRectangle|*
%AMROUNDEDRECTD46*
21,1,2.2032,1.4000,0,0,270.0*
21,1,1.4000,2.2032,0,0,270.0*
1,1,0.8032,-0.7000,-0.7000*
1,1,0.8032,-0.7000,0.7000*
1,1,0.8032,0.7000,0.7000*
1,1,0.8032,0.7000,-0.7000*
%
%ADD46ROUNDEDRECTD46*%
%ADD47O,2.5032X0.9032*%
%ADD48R,2.4032X2.2032*%
%ADD49R,1.5032X0.8032*%
%ADD50R,0.8032X1.5032*%
%ADD51C,0.9032*%
%ADD52C,1.8532*%
%ADD53R,1.8532X1.8532*%
%ADD54R,1.6002X1.6002*%
%ADD55C,1.6002*%
%ADD56C,2.6032*%
%ADD57R,2.6032X2.6032*%
%ADD58C,1.8032*%
%ADD59R,1.8032X1.8032*%
D35*
X331674Y29210D02*
D03*
X310674D02*
D03*
X42368Y9906D02*
D03*
X21368D02*
D03*
X314030Y129540D02*
D03*
X293030D02*
D03*
X433746Y88900D02*
D03*
X454746D02*
D03*
X435270Y154686D02*
D03*
X456270D02*
D03*
X274320Y187960D02*
D03*
X295320D02*
D03*
X354924Y148590D02*
D03*
X333924D02*
D03*
D36*
X181890Y45860D02*
D03*
X211890D02*
D03*
X226890Y126860D02*
D03*
X221890D02*
D03*
X216890D02*
D03*
X211890D02*
D03*
X206890D02*
D03*
X201890D02*
D03*
X196890D02*
D03*
X191890D02*
D03*
X186890D02*
D03*
X181890D02*
D03*
X176890D02*
D03*
X171890D02*
D03*
Y45860D02*
D03*
X176890D02*
D03*
X186890D02*
D03*
X191890D02*
D03*
X196890D02*
D03*
X201890D02*
D03*
X206890D02*
D03*
X216890D02*
D03*
X221890D02*
D03*
X226890D02*
D03*
D37*
X239890Y93860D02*
D03*
Y58860D02*
D03*
Y63860D02*
D03*
Y68860D02*
D03*
Y73860D02*
D03*
Y78860D02*
D03*
Y83860D02*
D03*
Y88860D02*
D03*
Y98860D02*
D03*
Y103860D02*
D03*
Y108860D02*
D03*
Y113860D02*
D03*
X158890D02*
D03*
Y108860D02*
D03*
Y103860D02*
D03*
Y98860D02*
D03*
Y93860D02*
D03*
Y88860D02*
D03*
Y83860D02*
D03*
Y78860D02*
D03*
Y73860D02*
D03*
Y68860D02*
D03*
Y63860D02*
D03*
Y58860D02*
D03*
D38*
X294386Y29260D02*
D03*
X233680Y160696D02*
D03*
Y181696D02*
D03*
X274320Y168910D02*
D03*
Y147910D02*
D03*
X274066Y29260D02*
D03*
Y50260D02*
D03*
X294386D02*
D03*
X313690Y75606D02*
D03*
Y96606D02*
D03*
X120650Y181716D02*
D03*
Y160716D02*
D03*
X213360Y160696D02*
D03*
Y181696D02*
D03*
D39*
X159360Y185450D02*
D03*
X140360Y185450D02*
D03*
X149860Y185450D02*
D03*
X159360Y157450D02*
D03*
X140360Y157450D02*
D03*
D40*
X290830Y99090D02*
D03*
X290830Y71090D02*
D03*
X97790Y151696D02*
D03*
Y179696D02*
D03*
D41*
X463810Y179070D02*
D03*
X432810D02*
D03*
X461270Y64770D02*
D03*
X430270D02*
D03*
X61220Y179070D02*
D03*
X30220D02*
D03*
D42*
X125110Y91440D02*
D03*
Y96440D02*
D03*
Y86440D02*
D03*
X111110Y96440D02*
D03*
Y86440D02*
D03*
Y91440D02*
D03*
D43*
X461270Y114927D02*
D03*
X430270Y125927D02*
D03*
X461270D02*
D03*
X430270Y114927D02*
D03*
D44*
X78708Y75010D02*
D03*
Y123260D02*
D03*
Y131260D02*
D03*
Y67010D02*
D03*
D45*
Y81668D02*
D03*
Y86677D02*
D03*
Y91686D02*
D03*
Y96695D02*
D03*
Y101705D02*
D03*
Y106714D02*
D03*
Y111723D02*
D03*
Y116732D02*
D03*
D46*
X68210Y150260D02*
D03*
X68210Y48260D02*
D03*
X29210Y150260D02*
D03*
Y48260D02*
D03*
D47*
X395070Y86360D02*
D03*
Y99060D02*
D03*
Y111760D02*
D03*
Y124460D02*
D03*
X344070Y86360D02*
D03*
Y99060D02*
D03*
Y111760D02*
D03*
Y124460D02*
D03*
D48*
X185420Y155180D02*
D03*
Y185180D02*
D03*
D49*
X354670Y176530D02*
D03*
X333670Y167030D02*
D03*
X333670Y186030D02*
D03*
D50*
X303530Y169250D02*
D03*
X313030Y148250D02*
D03*
X294030Y148250D02*
D03*
D51*
X63010Y70360D02*
D03*
X63010Y128160D02*
D03*
X440944Y31750D02*
D03*
D52*
X509910Y48260D02*
D03*
X484510Y22860D02*
D03*
Y48260D02*
D03*
Y73660D02*
D03*
X509910Y22860D02*
D03*
D53*
Y73660D02*
D03*
D54*
X407670Y59690D02*
D03*
X80010Y19050D02*
D03*
X408940Y20320D02*
D03*
D55*
X387350Y59690D02*
D03*
X59690Y19050D02*
D03*
X388620Y20320D02*
D03*
D56*
X509270Y170180D02*
D03*
D57*
Y119380D02*
D03*
D58*
X162560Y17526D02*
D03*
X137160D02*
D03*
X111760D02*
D03*
D59*
X187960D02*
D03*
M02*
