G04*
G04 #@! TF.GenerationSoftware,Altium Limited,Altium Designer,24.2.2 (26)*
G04*
G04 Layer_Color=8421504*
%FSLAX44Y44*%
%MOMM*%
G71*
G04*
G04 #@! TF.SameCoordinates,200C4C84-4450-49E8-9A81-A87B66CA8C1A*
G04*
G04*
G04 #@! TF.FilePolarity,Positive*
G04*
G01*
G75*
%ADD19R,1.2000X1.2000*%
%ADD20O,0.3000X1.8000*%
%ADD21O,1.8000X0.3000*%
%ADD22R,1.2000X1.2000*%
%ADD23R,0.6000X0.9000*%
%ADD24R,1.2000X2.0000*%
%ADD25R,1.5000X1.9000*%
%ADD26R,0.8500X0.3000*%
%ADD27R,1.5000X0.8000*%
G04:AMPARAMS|DCode=28|XSize=0.6mm|YSize=1.8mm|CornerRadius=0.15mm|HoleSize=0mm|Usage=FLASHONLY|Rotation=270.000|XOffset=0mm|YOffset=0mm|HoleType=Round|Shape=RoundedRectangle|*
%AMROUNDEDRECTD28*
21,1,0.6000,1.5000,0,0,270.0*
21,1,0.3000,1.8000,0,0,270.0*
1,1,0.3000,-0.7500,-0.1500*
1,1,0.3000,-0.7500,0.1500*
1,1,0.3000,0.7500,0.1500*
1,1,0.3000,0.7500,-0.1500*
%
%ADD28ROUNDEDRECTD28*%
G04:AMPARAMS|DCode=29|XSize=0.3mm|YSize=1.8mm|CornerRadius=0.075mm|HoleSize=0mm|Usage=FLASHONLY|Rotation=270.000|XOffset=0mm|YOffset=0mm|HoleType=Round|Shape=RoundedRectangle|*
%AMROUNDEDRECTD29*
21,1,0.3000,1.6500,0,0,270.0*
21,1,0.1500,1.8000,0,0,270.0*
1,1,0.1500,-0.8250,-0.0750*
1,1,0.1500,-0.8250,0.0750*
1,1,0.1500,0.8250,0.0750*
1,1,0.1500,0.8250,-0.0750*
%
%ADD29ROUNDEDRECTD29*%
G04:AMPARAMS|DCode=30|XSize=2mm|YSize=2mm|CornerRadius=0.3mm|HoleSize=0mm|Usage=FLASHONLY|Rotation=270.000|XOffset=0mm|YOffset=0mm|HoleType=Round|Shape=RoundedRectangle|*
%AMROUNDEDRECTD30*
21,1,2.0000,1.4000,0,0,270.0*
21,1,1.4000,2.0000,0,0,270.0*
1,1,0.6000,-0.7000,-0.7000*
1,1,0.6000,-0.7000,0.7000*
1,1,0.6000,0.7000,0.7000*
1,1,0.6000,0.7000,-0.7000*
%
%ADD30ROUNDEDRECTD30*%
%ADD31O,2.3000X0.7000*%
%ADD32R,2.2000X2.0000*%
%ADD33R,1.3000X0.6000*%
%ADD34R,0.6000X1.3000*%
D19*
X331674Y29210D02*
D03*
X310674D02*
D03*
X42368Y9906D02*
D03*
X21368D02*
D03*
X314030Y129540D02*
D03*
X293030D02*
D03*
X433746Y88900D02*
D03*
X454746D02*
D03*
X435270Y154686D02*
D03*
X456270D02*
D03*
X274320Y187960D02*
D03*
X295320D02*
D03*
X354924Y148590D02*
D03*
X333924D02*
D03*
D20*
X181890Y45860D02*
D03*
X211890D02*
D03*
X226890Y126860D02*
D03*
X221890D02*
D03*
X216890D02*
D03*
X211890D02*
D03*
X206890D02*
D03*
X201890D02*
D03*
X196890D02*
D03*
X191890D02*
D03*
X186890D02*
D03*
X181890D02*
D03*
X176890D02*
D03*
X171890D02*
D03*
Y45860D02*
D03*
X176890D02*
D03*
X186890D02*
D03*
X191890D02*
D03*
X196890D02*
D03*
X201890D02*
D03*
X206890D02*
D03*
X216890D02*
D03*
X221890D02*
D03*
X226890D02*
D03*
D21*
X239890Y93860D02*
D03*
Y58860D02*
D03*
Y63860D02*
D03*
Y68860D02*
D03*
Y73860D02*
D03*
Y78860D02*
D03*
Y83860D02*
D03*
Y88860D02*
D03*
Y98860D02*
D03*
Y103860D02*
D03*
Y108860D02*
D03*
Y113860D02*
D03*
X158890D02*
D03*
Y108860D02*
D03*
Y103860D02*
D03*
Y98860D02*
D03*
Y93860D02*
D03*
Y88860D02*
D03*
Y83860D02*
D03*
Y78860D02*
D03*
Y73860D02*
D03*
Y68860D02*
D03*
Y63860D02*
D03*
Y58860D02*
D03*
D22*
X294386Y29260D02*
D03*
X233680Y160696D02*
D03*
Y181696D02*
D03*
X274320Y168910D02*
D03*
Y147910D02*
D03*
X274066Y29260D02*
D03*
Y50260D02*
D03*
X294386D02*
D03*
X313690Y75606D02*
D03*
Y96606D02*
D03*
X120650Y181716D02*
D03*
Y160716D02*
D03*
X213360Y160696D02*
D03*
Y181696D02*
D03*
D23*
X159360Y185450D02*
D03*
X140360Y185450D02*
D03*
X149860Y185450D02*
D03*
X159360Y157450D02*
D03*
X140360Y157450D02*
D03*
D24*
X290830Y99090D02*
D03*
X290830Y71090D02*
D03*
X97790Y151696D02*
D03*
Y179696D02*
D03*
D25*
X463810Y179070D02*
D03*
X432810D02*
D03*
X461270Y64770D02*
D03*
X430270D02*
D03*
X61220Y179070D02*
D03*
X30220D02*
D03*
D26*
X125110Y91440D02*
D03*
Y96440D02*
D03*
Y86440D02*
D03*
X111110Y96440D02*
D03*
Y86440D02*
D03*
Y91440D02*
D03*
D27*
X461270Y114927D02*
D03*
X430270Y125927D02*
D03*
X461270D02*
D03*
X430270Y114927D02*
D03*
D28*
X78708Y75010D02*
D03*
Y123260D02*
D03*
Y131260D02*
D03*
Y67010D02*
D03*
D29*
Y81668D02*
D03*
Y86677D02*
D03*
Y91686D02*
D03*
Y96695D02*
D03*
Y101705D02*
D03*
Y106714D02*
D03*
Y111723D02*
D03*
Y116732D02*
D03*
D30*
X68210Y150260D02*
D03*
X68210Y48260D02*
D03*
X29210Y150260D02*
D03*
Y48260D02*
D03*
D31*
X395070Y86360D02*
D03*
Y99060D02*
D03*
Y111760D02*
D03*
Y124460D02*
D03*
X344070Y86360D02*
D03*
Y99060D02*
D03*
Y111760D02*
D03*
Y124460D02*
D03*
D32*
X185420Y155180D02*
D03*
Y185180D02*
D03*
D33*
X354670Y176530D02*
D03*
X333670Y167030D02*
D03*
X333670Y186030D02*
D03*
D34*
X303530Y169250D02*
D03*
X313030Y148250D02*
D03*
X294030Y148250D02*
D03*
M02*
