M48
;Layer_Color=9474304
;FILE_FORMAT=4:4
METRIC,LZ
;TYPE=PLATED
T01F00S00C0.4000
T02F00S00C0.5000
T03F00S00C0.7620
T04F00S00C1.1000
T05F00S00C1.6000
;TYPE=NON_PLATED
T06F00S00C0.7000
%
T01
X00053086Y00086868
X00057658Y00112268
X00177292Y00101092
Y0009017
X00205925Y0006603
X00237236Y0004572
X0026289Y00064008
X00263144Y0008001
X00282702Y00008128
X00364236Y00098806
X00440944Y0003175
X00319786Y00166878
X00288798Y00172974
X00259588Y00179832
X0025019
Y00189738
X00259588
X00159512Y00169926
T02
X00111311Y00110981
X00131311
Y00130981
X00151311
X00211311Y00090981
X00251311Y00130981
X00271311
X00371311Y00070981
X00351311Y00050981
X00531311
Y00010981
X00411311Y00150981
Y00170981
X00391311
Y00150981
X00371311Y00170981
T03
X0005969Y0001905
X0008001
X0038862Y0002032
X0040894
X0040767Y0005969
X0038735
T04
X0011176Y00017526
X0013716
X0016256
X0018796
X0048451Y0002286
Y0004826
X0050991
Y0007366
X0048451
X0050991Y0002286
T05
X0050927Y0011938
Y0017018
T06
X0006301Y0007036
X0006301Y0012816
M30
